<?xml version="1.0" encoding="UTF-8"?>
<svg version="1.1" xmlns="http://www.w3.org/2000/svg" width="600" height="600">
<path d="M0 0 C2.88756058 0.31216871 4.53713377 0.53713377 6.625 2.625 C8 5 8 5 9.4375 8.5 C10.93411431 11.85241605 12.25520516 13.63379755 15 16 C15.0825 14.7625 15.165 13.525 15.25 12.25 C15.63354744 9.10935789 15.89891249 8.12717461 17.9375 5.5625 C21.70005738 2.71207774 24.27603852 2.51959714 29 3 C32.60625355 5.58709494 33.79263006 7.30470079 35.0625 11.5625 C35 15 35 15 33.25 17.3125 C31.53916849 18.59562363 29.77937232 19.81375178 28 21 C28.99580078 21.16435547 28.99580078 21.16435547 30.01171875 21.33203125 C35.00490666 22.22861828 38.71554737 23.18450256 43 26 C45.69254991 26.70670728 45.69254991 26.70670728 48 27 C48 27.66 48 28.32 48 29 C48.66 29.33 49.32 29.66 50 30 C49.625 32.8125 49.625 32.8125 48 36 C42.61793528 38.71590327 36.94308771 39.38759268 31 39 C31.433125 39.86625 31.433125 39.86625 31.875 40.75 C32.91666667 42.83333333 33.95833333 44.91666667 35 47 C35.66 47 36.32 47 37 47 C37.268125 46.38125 37.53625 45.7625 37.8125 45.125 C39 43 39 43 42 41 C47.34545455 40.67272727 47.34545455 40.67272727 50 42 C50.125 48.75 50.125 48.75 49 51 C49.20625 52.134375 49.4125 53.26875 49.625 54.4375 C50 58 50 58 49.0625 60 C45.57292898 61.69191322 42.74367468 60.78496405 39 60 C38.67 59.34 38.34 58.68 38 58 C37.34 58 36.68 58 36 58 C32.38398784 63.57468542 32.69279941 68.60567654 33 75 C33.86625 74.21625 34.7325 73.4325 35.625 72.625 C40.01888354 68.97549203 44.28368679 67.66374628 50 68 C49 71 49 71 47.5625 72.3125 C45.77130879 74.00082424 45.77130879 74.00082424 45.125 76.875 C43.14104093 82.38599743 39.58127734 84.77277161 34.5 87.25 C30.08814272 89.60105552 28.50584829 91.92629907 26.359375 96.3515625 C19.6664437 109.39123899 8.38607806 126.20464065 -6 131 C-6.66 131.33 -7.32 131.66 -8 132 C-15.90049009 132.94535779 -21.58683256 131.74307175 -28 127 C-31.50349351 124.0551501 -31.42066899 121.46912497 -32 117 C-32.66 116.67 -33.32 116.34 -34 116 C-34 115.01 -34 114.02 -34 113 C-34.72703125 114.10408203 -34.72703125 114.10408203 -35.46875 115.23046875 C-39.52222802 121.13139733 -43.13724863 126.36260461 -50 129 C-54.53667588 129.7821855 -56.29277387 129.42161558 -60.25 127.0625 C-63.7566482 123.78087735 -65.05794762 119.6193621 -66 115 C-66 113.68 -66 112.36 -66 111 C-66.35191406 111.56847656 -66.70382812 112.13695312 -67.06640625 112.72265625 C-74.87730061 124.93865031 -74.87730061 124.93865031 -81 128 C-86.97597299 128.68953535 -86.97597299 128.68953535 -89.67871094 126.86962891 C-91.11914062 125.5797526 -92.55957031 124.2898763 -94 123 C-95.83935862 125.12003997 -97.67156733 127.24557227 -99.5 129.375 C-100.02464844 129.97828125 -100.54929687 130.5815625 -101.08984375 131.203125 C-104.00206388 134.18069705 -104.00206388 134.18069705 -105 138 C-106.2737993 138.98944319 -107.59509329 139.9183486 -108.9375 140.8125 C-112.23637582 143.0612661 -112.23637582 143.0612661 -113.75 146.625 C-113.8325 147.40875 -113.915 148.1925 -114 149 C-114.59167969 149.56074219 -115.18335938 150.12148438 -115.79296875 150.69921875 C-118.97836119 154.0199199 -120.56830349 157.99409529 -122.44335938 162.13085938 C-123.22586048 163.78864136 -124.107268 165.39888206 -125 167 C-125.99 167.33 -126.98 167.66 -128 168 C-134.14848144 162.00917193 -134.14848144 162.00917193 -134.375 156.625 C-134.33520727 151.10176875 -132.5788126 146.95179784 -130.30859375 141.98046875 C-128.71465728 138.35010001 -127.62529271 134.68057284 -126.578125 130.86328125 C-126 129 -126 129 -125 128 C-124.92697454 126.0429178 -124.91636694 124.08333012 -124.9375 122.125 C-124.94652344 121.05507813 -124.95554687 119.98515625 -124.96484375 118.8828125 C-124.97644531 117.93148437 -124.98804688 116.98015625 -125 116 C-125 115.01 -125 114.02 -125 113 C-125.62648438 113.56589844 -126.25296875 114.13179688 -126.8984375 114.71484375 C-128.12433594 115.81505859 -128.12433594 115.81505859 -129.375 116.9375 C-130.59316406 118.03384766 -130.59316406 118.03384766 -131.8359375 119.15234375 C-134.363015 121.3099388 -135.44480833 121.93691004 -138.75 122.3125 C-142.91629757 121.91189446 -144.78636207 120.65474438 -148 118 C-149.52978246 116.06416417 -150.7394362 114.13326181 -152 112 C-152.58007812 112.61488281 -153.16015625 113.22976563 -153.7578125 113.86328125 C-163.08163265 123.51020408 -163.08163265 123.51020408 -170.5 124.4375 C-174.91355553 123.88580556 -176.70204964 123.01117206 -180 120 C-181.92327709 116.77091899 -183.51242264 113.44907317 -185 110 C-185.99580078 110.92232422 -185.99580078 110.92232422 -187.01171875 111.86328125 C-187.89472656 112.67152344 -188.77773438 113.47976563 -189.6875 114.3125 C-190.55761719 115.11300781 -191.42773438 115.91351563 -192.32421875 116.73828125 C-198.31530343 121.80227838 -198.31530343 121.80227838 -202.4296875 122.28515625 C-208.1115231 121.76780061 -211.49652691 120.53612007 -215.72265625 116.66796875 C-219.3842874 111.88657273 -218.47653568 104.66691081 -218 99 C-216.48349645 91.91297352 -214.38268367 85.41643722 -211 79 C-210.34 79 -209.68 79 -209 79 C-209.33 78.34 -209.66 77.68 -210 77 C-211.00593243 78.1196986 -212.0045849 79.2459412 -213 80.375 C-213.556875 81.00148438 -214.11375 81.62796875 -214.6875 82.2734375 C-216.20172487 83.90389833 -216.20172487 83.90389833 -216 86 C-216.66 86 -217.32 86 -218 86 C-218.27714844 86.70511719 -218.55429687 87.41023438 -218.83984375 88.13671875 C-219.61416115 90.04774452 -220.41912905 91.94663104 -221.25390625 93.83203125 C-223.80787686 99.6489852 -225.63330687 104.64398568 -226 111 C-226.66 111 -227.32 111 -228 111 C-228 113.31 -228 115.62 -228 118 C-228.66 118 -229.32 118 -230 118 C-230.04125 118.61875 -230.0825 119.2375 -230.125 119.875 C-231 122 -231 122 -233.75 123.5 C-237 124 -237 124 -239.6875 122.375 C-244.97768721 116.94183476 -244.97768721 116.94183476 -245.07421875 112.8671875 C-245.03748047 111.44792969 -245.03748047 111.44792969 -245 110 C-245.63615234 111.08667969 -245.63615234 111.08667969 -246.28515625 112.1953125 C-250.50968033 119.15881373 -254.42430911 124.49426451 -261.625 128.4375 C-264.61551854 129.14578071 -266.09948546 129.06116385 -269 128 C-274.72934766 123.84341444 -276.85691555 120.85850669 -278 114 C-278.33 114.66 -278.66 115.32 -279 116 C-279.66 116 -280.32 116 -281 116 C-281.268125 116.763125 -281.53625 117.52625 -281.8125 118.3125 C-283.76456051 122.73032115 -286.65880703 124.92806699 -291 127 C-296.8640141 127.77449243 -301.29950307 126.46145381 -306 123 C-310.34845789 118.63053506 -311.29097509 114.58437375 -311.3125 108.5 C-311.23303224 106.66543011 -311.13733605 104.83114735 -311 103 C-310.34 103 -309.68 103 -309 103 C-308.87625 102.13375 -308.7525 101.2675 -308.625 100.375 C-308.01941879 97.10486147 -307.11693965 94.12743101 -306 91 C-305.34 91 -304.68 91 -304 91 C-303.773125 90.319375 -303.54625 89.63875 -303.3125 88.9375 C-301.68773854 85.3011291 -299.67196743 81.97170737 -297 79 C-296.34 79 -295.68 79 -295 79 C-294.505 77.515 -294.505 77.515 -294 76 C-291.890625 74.46484375 -291.890625 74.46484375 -289.25 72.9375 C-288.38890625 72.43089844 -287.5278125 71.92429687 -286.640625 71.40234375 C-281.07820912 68.44833887 -276.30130723 66.79825816 -270 68 C-265.77375095 70.12377893 -262.57939858 72.33422907 -261 76.875 C-261 77.57625 -261 78.2775 -261 79 C-264.05769632 81.03846421 -265.13254985 81.23694998 -268.625 81.625 C-275.10140327 82.91463263 -278.9848377 85.7924997 -283 91 C-288.52126104 100.06155833 -288.52126104 100.06155833 -291 110 C-291.66 110 -292.32 110 -293 110 C-292.67 112.97 -292.34 115.94 -292 119 C-289.0005907 117.91839859 -289.0005907 117.91839859 -286 116 C-284.56031273 112.93638223 -284.56031273 112.93638223 -284 110 C-283.34 110 -282.68 110 -282 110 C-281.67 108.02 -281.34 106.04 -281 104 C-280.34 104 -279.68 104 -279 104 C-277.98888907 100.95086772 -277.98888907 100.95086772 -279 98 C-278.01 97.67 -277.02 97.34 -276 97 C-274.66250494 93.98285999 -273.63544331 90.90925241 -272.57421875 87.78515625 C-271 85 -271 85 -268.06640625 83.6015625 C-263.80573789 82.76571164 -259.91863041 83.04068479 -256 85 C-256 85.66 -256 86.32 -256 87 C-255.34 87 -254.68 87 -254 87 C-254.495 92.94 -254.495 92.94 -255 99 C-255.66 99 -256.32 99 -257 99 C-257.03867187 100.01707031 -257.03867187 100.01707031 -257.078125 101.0546875 C-257.50425683 108.04712346 -259.04377066 113.66129431 -262 120 C-255.5913031 117.97331808 -253.42813958 113.47896921 -250 108 C-249.17048828 106.72382813 -249.17048828 106.72382813 -248.32421875 105.421875 C-244.46225911 99.02041336 -242.97170146 93.00517443 -241.72265625 85.66796875 C-240.86311048 81.30519319 -239.4526967 77.37342903 -237.76953125 73.26953125 C-236.78592425 70.76804711 -236.78592425 70.76804711 -237 67 C-236.34 67 -235.68 67 -235 67 C-235 65.35 -235 63.7 -235 62 C-232.52489914 61.09542278 -231.40762047 60.83156815 -228.9296875 61.85546875 C-228.25164062 62.29503906 -227.57359375 62.73460937 -226.875 63.1875 C-226.19179688 63.61417969 -225.50859375 64.04085937 -224.8046875 64.48046875 C-221.26874031 67.45770567 -220.36641781 71.70554404 -219 76 C-218.38125 75.505 -217.7625 75.01 -217.125 74.5 C-215 73 -215 73 -213 73 C-213 72.34 -213 71.68 -213 71 C-210.21303798 67.24365988 -206.71360187 65.48450503 -202.32421875 64.1640625 C-199.41003579 63.95835547 -198.32499094 64.51464593 -196 66.25 C-192.707429 69.58050385 -192.17770882 72.56484527 -192.0703125 77.14453125 C-192.20990057 79.01670717 -192.20990057 79.01670717 -191 80 C-191.44375214 86.0964717 -192.92789514 91.43819879 -194.9375 97.1875 C-195.20240234 97.96802734 -195.46730469 98.74855469 -195.74023438 99.55273438 C-196.814956 102.69689515 -197.91451959 105.79456675 -199.19140625 108.86328125 C-200.17696626 111.08686904 -200.17696626 111.08686904 -200 114 C-199.34 113.34 -198.68 112.68 -198 112 C-197.01 111.67 -196.02 111.34 -195 111 C-194.01 109.515 -194.01 109.515 -193 108 C-192.21625 107.278125 -191.4325 106.55625 -190.625 105.8125 C-183.50932094 98.18855815 -181.32288844 87.17730667 -178.26757812 77.47070312 C-177.88923828 76.29830078 -177.51089844 75.12589844 -177.12109375 73.91796875 C-176.7852124 72.85344482 -176.44933105 71.7889209 -176.10327148 70.69213867 C-175.02277432 68.05557258 -174.30601002 66.64704836 -172 65 C-167.8095246 65 -165.73868358 65.31963355 -162.625 68.1875 C-160.8789933 71.20943468 -160.46702938 73.5751179 -160 77 C-159.34 77.33 -158.68 77.66 -158 78 C-158.33 78.33 -158.66 78.66 -159 79 C-159.23659614 82.42501072 -159.39673972 85.84280568 -159.51757812 89.2734375 C-159.60910491 91.18686533 -159.79739852 93.09512839 -160 95 C-160.99 95.495 -160.99 95.495 -162 96 C-162.26280837 98.00391382 -162.52017406 100.00902319 -162.7265625 102.01953125 C-163.05163482 104.37398361 -163.83718263 105.93276912 -165 108 C-166.04775146 110.65019487 -167.01882622 113.32407152 -168 116 C-161.7886728 112.42848686 -155.67706209 107.33184458 -153.03515625 100.5078125 C-152.59524623 98.83667502 -152.17330835 97.16070247 -151.76953125 95.48046875 C-150.65449953 91.88633098 -148.66617673 89.15855067 -146.49609375 86.1171875 C-144.43081989 83.19452842 -142.73122869 80.12952878 -141 77 C-140.34 77 -139.68 77 -139 77 C-138.76152344 76.43667969 -138.52304687 75.87335938 -138.27734375 75.29296875 C-136.72208229 72.50110796 -134.82795576 70.56307592 -132.5625 68.3125 C-131.78003906 67.52488281 -130.99757813 66.73726563 -130.19140625 65.92578125 C-127.59628357 63.64521889 -125.25295478 63.08431826 -122 62 C-120.5 63.375 -120.5 63.375 -119 65 C-119 65.66 -119 66.32 -119 67 C-118.113125 66.896875 -117.22625 66.79375 -116.3125 66.6875 C-113 67 -113 67 -110.125 69.25 C-108 72 -108 72 -108 76 C-110.64 76 -113.28 76 -116 76 C-116.25652344 76.74378906 -116.51304687 77.48757813 -116.77734375 78.25390625 C-118.05663409 81.12720054 -119.37473269 82.70553537 -121.5625 84.9375 C-125.06352245 88.76494319 -128.03848545 92.73503417 -130.875 97.0625 C-131.25599854 97.62767334 -131.63699707 98.19284668 -132.02954102 98.77514648 C-134.80726633 103.11039319 -135.96536209 107.02829257 -137 112 C-125.45003553 103.174611 -125.45003553 103.174611 -119 91 C-118.34 91 -117.68 91 -117 91 C-117 89.35 -117 87.7 -117 86 C-114.75 85.6875 -114.75 85.6875 -112 86 C-109.6875 88.25 -109.6875 88.25 -108 91 C-108 92.32 -108 93.64 -108 95 C-107.01 95.33 -106.02 95.66 -105 96 C-104.63355422 97.55966592 -104.28239138 99.12292651 -103.9375 100.6875 C-103.74027344 101.55761719 -103.54304687 102.42773438 -103.33984375 103.32421875 C-102.97262115 106.21556907 -103.39246302 108.16482741 -104 111 C-104.06701506 113.43666765 -104.08528021 115.87501742 -104.0625 118.3125 C-104.05347656 119.56675781 -104.04445313 120.82101562 -104.03515625 122.11328125 C-104.02355469 123.06589844 -104.01195312 124.01851563 -104 125 C-97.75117816 118.35282177 -97.75117816 118.35282177 -94.6953125 110.1171875 C-95.00967231 107.52759648 -95.00967231 107.52759648 -95.66015625 105.15625 C-96.09774758 102.37980849 -95.29626064 101.46948638 -94 99 C-93.43809101 96.45455227 -92.94030724 93.94071136 -92.5 91.375 C-92.24396268 89.9452277 -91.98745218 88.51554005 -91.73046875 87.0859375 C-91.54556885 86.04324707 -91.54556885 86.04324707 -91.35693359 84.97949219 C-90.63467711 80.97398224 -89.81475903 76.98752656 -89 73 C-86.3125 72.625 -86.3125 72.625 -83 73 C-80.4375 75.6875 -80.4375 75.6875 -79.23046875 77.359375 C-77.88830603 79.26325238 -77.88830603 79.26325238 -75.25 81.4375 C-72.5141028 84.55338292 -71.94151146 86.9601133 -72 91 C-72.67530121 94.58487437 -73.72274723 98.02164692 -74.8125 101.5 C-75.08642578 102.41136719 -75.36035156 103.32273437 -75.64257812 104.26171875 C-76.17507201 106.0315905 -76.71278273 107.79990324 -77.25634766 109.56640625 C-78.21375362 112.69950626 -79.11202443 115.84660381 -80 119 C-79.5875 118.2575 -79.175 117.515 -78.75 116.75 C-77 114 -77 114 -75.17578125 112.2890625 C-72.37645244 109.34398767 -70.47807546 106.12116302 -68.4375 102.625 C-68.05142578 101.97789062 -67.66535156 101.33078125 -67.26757812 100.6640625 C-62.95720821 93.37975764 -60.27711906 86.87268986 -58.71484375 78.5703125 C-58.2578125 76.484375 -58.2578125 76.484375 -57 73 C-54.3671875 71.515625 -54.3671875 71.515625 -52 71 C-46.93585817 74.48863104 -45.16245105 77.18108828 -43.54296875 83.109375 C-43.1667574 84.99472601 -43.1667574 84.99472601 -42 86 C-41.31044186 93.58513956 -43.22679146 101.61261269 -46.0625 108.62890625 C-46.97349209 110.93295707 -47.3754948 112.85903216 -47.625 115.3125 C-47.74875 116.529375 -47.8725 117.74625 -48 119 C-43.15398786 114.59453442 -39.59524966 109.45251133 -36 104 C-35.22269531 102.83210938 -35.22269531 102.83210938 -34.4296875 101.640625 C-32.69435625 98.43547767 -31.77170323 95.24681529 -30.75 91.75 C-28.9316832 85.8728509 -26.69266188 81.48820305 -22.55078125 76.83203125 C-20.91328212 75.0487461 -20.91328212 75.0487461 -19.92578125 72.80859375 C-19 71 -19 71 -16.875 70.25 C-16.25625 70.1675 -15.6375 70.085 -15 70 C-15 69.34 -15 68.68 -15 68 C-9.38145918 66.04911777 -3.78886224 64.36827653 2 63 C2 63.66 2 64.32 2 65 C2.886875 65.12375 3.77375 65.2475 4.6875 65.375 C7.70387502 65.94412736 10.20326054 66.76614436 13 68 C14.46954211 74.83846327 14.1229422 79.44966984 10.63671875 85.5625 C4.96196093 94.01369064 -3.88793072 104.47198268 -14 107 C-14 111.95 -14 116.9 -14 122 C-9.28941438 123.3721042 -9.28941438 123.3721042 -6 122 C-5.34 121.34 -4.68 120.68 -4 120 C-2.67532254 119.3162955 -1.34136367 118.65035814 0 118 C8.51843277 112.32104482 16.68512734 103.94461798 20 94 C20.66 94 21.32 94 22 94 C23.70291954 91.24215982 23.70291954 91.24215982 23.68359375 88.1015625 C22.98328797 85.94862246 22.05780866 84.12394725 21 82.125 C18.17798143 76.02085113 18.18857988 69.62858263 18 63 C16.865625 62.731875 15.73125 62.46375 14.5625 62.1875 C13.386875 61.795625 12.21125 61.40375 11 61 C10.67 60.01 10.34 59.02 10 58 C9.34 57.67 8.68 57.34 8 57 C8.185625 55.906875 8.37125 54.81375 8.5625 53.6875 C9.2578068 50.06375867 9.2578068 50.06375867 8 47 C10.15096215 42.6980757 13.63397247 41.55929555 18 40 C18.99 40 19.98 40 21 40 C19.32571764 36.76423875 19.32571764 36.76423875 16.3125 36.3125 C12.96323304 35.9344977 12.96323304 35.9344977 9.4375 36.0625 C6.06152625 36.00111866 4.0063126 35.45760611 1 34 C1 33.34 1 32.68 1 32 C0.21625 31.938125 -0.5675 31.87625 -1.375 31.8125 C-4 31 -4 31 -5.3125 28.75 C-6.00312861 25.98748555 -6.30590033 23.82957808 -6 21 C-4 19 -4 19 -1.125 18.75 C2.29983923 18.27252053 2.29983923 18.27252053 4.375 14.9375 C4.91125 13.968125 5.4475 12.99875 6 12 C3.03 11.34 0.06 10.68 -3 10 C-4 6 -4 6 -2.0625 2.75 C-1.381875 1.8425 -0.70125 0.935 0 0 Z M17 18 C17 18.99 17 19.98 17 21 C18.32 20.67 19.64 20.34 21 20 C19.68 19.34 18.36 18.68 17 18 Z M27 30 C26.20046862 33.28696233 25.90341064 34.71023192 27 38 C27.66 38 28.32 38 29 38 C28.67 35.36 28.34 32.72 28 30 C27.67 30 27.34 30 27 30 Z M35 50 C34.67 50.99 34.34 51.98 34 53 C34.99 53.495 34.99 53.495 36 54 C36.33 52.68 36.66 51.36 37 50 C36.34 50 35.68 50 35 50 Z M26 63 C24.02 63.99 22.04 64.98 20 66 C22.80804268 68.96404505 25.18315774 71.44499019 29 73 C28.87625 71.72125 28.7525 70.4425 28.625 69.125 C28.55539062 68.40570313 28.48578125 67.68640625 28.4140625 66.9453125 C28.13625251 64.77331755 28.13625251 64.77331755 26 63 Z M3 78 C-1.12169757 82.35068077 -8 89.81803633 -8 96 C-4.43669838 94.54014515 -2.67815284 92.67896037 -0.375 89.625 C0.21539063 88.85414063 0.80578125 88.08328125 1.4140625 87.2890625 C3.67074528 84.03187996 5 82.01033598 5 78 C4.34 78 3.68 78 3 78 Z M-65 107 C-65.33 107.99 -65.66 108.98 -66 110 C-65.34 110 -64.68 110 -64 110 C-64.33 109.01 -64.66 108.02 -65 107 Z M-50 119 C-49 122 -49 122 -49 122 Z " fill="#010101" transform="translate(550,212)"/>
<path d="M0 0 C5.28557366 -0.50338797 7.90950339 0.65323004 12 4 C12.69748583 5.31747324 13.36959957 6.64914193 14 8 C14.639375 8.309375 15.27875 8.61875 15.9375 8.9375 C18.92448835 10.47625157 19.68496013 11.9096563 21 15 C21.63424686 21.3497125 20.52138004 27.23808185 19 33.375 C18.62226164 34.94465604 18.2471468 36.51494638 17.875 38.0859375 C17.70742187 38.7670459 17.53984375 39.4481543 17.3671875 40.14990234 C16.9026639 42.17607027 16.9026639 42.17607027 17 45 C16.34 45 15.68 45 15 45 C15.05220703 46.46759766 15.05220703 46.46759766 15.10546875 47.96484375 C15.24541571 54.74227523 15.23483256 60.51595207 12.6640625 66.8828125 C11.63748802 70.15577349 11.84427583 73.29230934 11.9609375 76.69140625 C12.00923434 79.54574946 11.58697981 82.2118459 11 85 C10.34 85 9.68 85 9 85 C9 89.62 9 94.24 9 99 C10.11375 97.741875 11.2275 96.48375 12.375 95.1875 C13.00148438 94.47980469 13.62796875 93.77210938 14.2734375 93.04296875 C17.18120412 89.60233087 18.25382274 87.63768223 18.265625 83.18359375 C18.26820313 82.25482422 18.27078125 81.32605469 18.2734375 80.36914062 C18.26183594 78.91797852 18.26183594 78.91797852 18.25 77.4375 C18.25773437 76.46619141 18.26546875 75.49488281 18.2734375 74.49414062 C18.27085937 73.56666016 18.26828125 72.63917969 18.265625 71.68359375 C18.26224121 70.40826782 18.26224121 70.40826782 18.25878906 69.10717773 C18.19273616 66.78230995 18.19273616 66.78230995 16 65 C20.23913043 56.62148338 20.23913043 56.62148338 24.19140625 55.2265625 C28.25171206 55.04793653 31.18483617 55.71420306 34.4375 58.1875 C38.96853122 63.16058304 39.32208632 67.7549099 39.44921875 74.29296875 C39.47095657 75.08020828 39.4926944 75.86744781 39.51509094 76.67854309 C39.55884772 78.33498197 39.59808315 79.99154576 39.63305664 81.64819336 C39.68754722 84.18970233 39.75770084 86.7304282 39.83007812 89.27148438 C39.87071373 90.88278951 39.91045843 92.49411741 39.94921875 94.10546875 C39.98036018 95.24764107 39.98036018 95.24764107 40.01213074 96.41288757 C40.115832 101.76833601 40.115832 101.76833601 39 104 C47.64453155 99.54675647 53.68550206 91.55803375 58 83 C57.67 82.34 57.34 81.68 57 81 C57.99 81 58.98 81 60 81 C60.33 79.02 60.66 77.04 61 75 C61.66 75 62.32 75 63 75 C63.12375 73.741875 63.2475 72.48375 63.375 71.1875 C63.69868059 67.89674737 64.06604999 66.90092502 66 64 C67.37879669 59.01577842 66.98637554 54.08368873 66.83984375 48.9609375 C67 46 67 46 69 43 C71.51960447 43.34753165 72.77302416 43.781754 74.625 45.5625 C78.28775848 52.05557185 78.26745209 58.74907678 78 66 C77.34 66 76.68 66 76 66 C76 67.65 76 69.3 76 71 C75.34 71 74.68 71 74 71 C73.75636719 71.68578125 73.51273438 72.3715625 73.26171875 73.078125 C71.77037048 76.53177362 69.86095942 79.60980044 67.8125 82.75 C67.41393799 83.36472168 67.01537598 83.97944336 66.60473633 84.61279297 C62.26161258 91.23724985 57.6745826 97.4520308 52 103 C51.34 103.66 50.68 104.32 50 105 C48.57420095 105.95520133 47.13498366 106.8904894 45.6875 107.8125 C42.72107613 109.73028359 40.79109069 111.2394814 38.4375 113.9375 C36 116 36 116 32.125 116.25 C27.04146781 115.22176192 23.95771532 112.11576259 21 108 C19.69293865 105.33952761 18.852086 102.85699423 18 100 C17.154375 100.928125 16.30875 101.85625 15.4375 102.8125 C11.46591759 106.76539261 7.44213619 108.76057488 1.8125 109.3125 C-1.91662754 108.8981525 -3.9125249 108.0874751 -6.5625 105.4375 C-8.68210367 101.84338943 -9.80058391 97.98104063 -11 94 C-11.96019364 95.58220587 -12.91807798 97.16581331 -13.875 98.75 C-14.40867187 99.63171875 -14.94234375 100.5134375 -15.4921875 101.421875 C-16.98621619 103.89902189 -16.98621619 103.89902189 -18.05078125 106.171875 C-21.26970239 112.37127868 -28.16864957 116.53271055 -34 120 C-34.66 120.66 -35.32 121.32 -36 122 C-36 121.01 -36 120.02 -36 119 C-37.36125 118.9071875 -37.36125 118.9071875 -38.75 118.8125 C-42 118 -42 118 -44.25 116.0625 C-47.29300611 110.73723931 -48 105.07527586 -48 99 C-48.45439453 99.87011719 -48.45439453 99.87011719 -48.91796875 100.7578125 C-52.75397187 107.91048294 -56.51778101 114.18553542 -64 118 C-67.03326698 118.62777479 -68.8153156 118.4622929 -72 118 C-75.64804954 114.41768109 -76.59639502 111.50976102 -77.1875 106.5 C-77.32542969 105.3965625 -77.46335937 104.293125 -77.60546875 103.15625 C-77.73566406 102.1146875 -77.86585937 101.073125 -78 100 C-78.19851562 99.09636719 -78.39703125 98.19273437 -78.6015625 97.26171875 C-79.16326078 94.07325497 -78.09038143 92.0415903 -77 89 C-76.44624365 86.56093579 -75.97409261 84.11347214 -75.5078125 81.65625 C-75.1685145 79.88146045 -74.80900187 78.11041966 -74.4296875 76.34375 C-73.46087571 71.8135315 -72.75450108 67.6644795 -73 63 C-71.3125 62.3125 -71.3125 62.3125 -69 62 C-64.88875465 63.89749785 -62.05805787 66.70670691 -59 70 C-57.8553125 71.175625 -57.8553125 71.175625 -56.6875 72.375 C-52.81378675 78.40077616 -55.61157123 86.38216068 -57 93 C-57.32437748 94.33554039 -57.65422071 95.66984002 -58 97 C-58.66 97 -59.32 97 -60 97 C-60.144375 97.886875 -60.28875 98.77375 -60.4375 99.6875 C-60.91024775 102.47145895 -61.4390527 105.23297423 -62 108 C-52.33198513 95.93212329 -44.21669093 83.62790229 -40.67089844 68.4074707 C-39.43096708 63.33879987 -39.43096708 63.33879987 -37.02734375 61.44921875 C-35 61 -35 61 -32.375 62.1875 C-29.02607465 64.74325882 -27.8153169 67.12687598 -26.9375 71.125 C-26.41442255 74.75924463 -26.41442255 74.75924463 -25 76 C-24.28174892 85.33726409 -27.04361066 94.22619938 -30 103 C-30.39372747 104.45338907 -30.77168394 105.91126202 -31.125 107.375 C-31.41375 108.57125 -31.7025 109.7675 -32 111 C-30.36263261 109.30221314 -28.74077025 107.59314688 -27.125 105.875 C-26.22007812 104.92367187 -25.31515625 103.97234375 -24.3828125 102.9921875 C-21.9688668 99.96090487 -21.12323581 97.6530462 -20 94 C-18.5 92.37109375 -18.5 92.37109375 -17 91 C-10.68808997 80.0701852 -9.4525828 67.18540224 -8.3125 54.875 C-8.11817383 52.90660156 -8.11817383 52.90660156 -7.91992188 50.8984375 C-7.2668946 44.96026763 -7.2668946 44.96026763 -7 39 C-6.34 39 -5.68 39 -5 39 C-5.04125 38.0925 -5.0825 37.185 -5.125 36.25 C-5.11404691 30.74059725 -3.96446278 25.40683682 -3 20 C-2.45067139 16.79294102 -1.91244948 13.58406777 -1.375 10.375 C-1.23989014 9.58053467 -1.10478027 8.78606934 -0.96557617 7.9675293 C-0.25866569 4.00588501 -0.25866569 4.00588501 0 0 Z " fill="#000000" transform="translate(169,222)"/>
<path d="M0 0 C1.010625 0.33 2.02125 0.66 3.0625 1 C5.35224122 3.36360383 5.45073483 4.22058195 5.6875 7.4375 C5.02754194 18.85477444 -2.94107523 28.01355749 -9.609375 36.75 C-11.36385664 39.06984411 -12.84435783 41.31246008 -14 44 C-14.66 44 -15.32 44 -16 44 C-16.41958984 45.10601562 -16.41958984 45.10601562 -16.84765625 46.234375 C-19.3226042 52.17425007 -23.00612203 57.52220806 -26.55859375 62.8671875 C-36.74068 78.0586594 -36.74068 78.0586594 -43.8671875 94.81640625 C-45.56344625 99.58347826 -48.08599706 103.8487374 -50.5625 108.25 C-51.56396532 110.04678403 -52.56527518 111.84365471 -53.56640625 113.640625 C-54.00927979 114.42985352 -54.45215332 115.21908203 -54.90844727 116.03222656 C-55.63368998 117.33964242 -56.33137257 118.66274514 -57 120 C-55.63875 120.185625 -55.63875 120.185625 -54.25 120.375 C-49.80154874 121.00013877 -45.38550055 121.80182185 -40.96484375 122.59765625 C-37.95224531 123.07474118 -37.95224531 123.07474118 -34.69140625 122.99609375 C-32 123 -32 123 -31 124 C-28.30764224 124.23678716 -25.63501844 124.42198025 -22.9375 124.5625 C-21.79958008 124.62727539 -21.79958008 124.62727539 -20.63867188 124.69335938 C-18.75934562 124.79973633 -16.87969756 124.90039934 -15 125 C-14.67 124.34 -14.34 123.68 -14 123 C-12.35443434 121.96564444 -10.6829392 120.97236487 -9 120 C-7.989375 119.2575 -6.97875 118.515 -5.9375 117.75 C-3 116 -3 116 -0.81640625 116.390625 C-0.21699219 116.59171875 0.38242188 116.7928125 1 117 C-0.77650279 124.30821472 -2.52226617 130.10264282 -9.125 134.375 C-11 135 -11 135 -14 135 C-14.33 135.66 -14.66 136.32 -15 137 C-23.49671898 137.11586435 -31.95013988 136.97927588 -40.4375 136.5625 C-41.26475586 136.52326416 -42.09201172 136.48402832 -42.94433594 136.44360352 C-46.79938465 136.24154312 -50.58730054 135.94572479 -54.41015625 135.40234375 C-57.95260888 134.75091107 -57.95260888 134.75091107 -61 136 C-63.3406065 135.72230092 -65.67624308 135.39460023 -68 135 C-68 135.66 -68 136.32 -68 137 C-72.80036804 138.59647775 -76.57915383 137.16428522 -81 135 C-84.1973288 131.4030051 -84.53859631 127.70631768 -85 123 C-84.34 123 -83.68 123 -83 123 C-82.84374146 121.69712036 -82.84374146 121.69712036 -82.68432617 120.36791992 C-81.95863935 116.79644303 -80.80211498 114.29872894 -79.05078125 111.11328125 C-78.44943359 110.00919922 -77.84808594 108.90511719 -77.22851562 107.76757812 C-76.59623047 106.62740234 -75.96394531 105.48722656 -75.3125 104.3125 C-74.69955078 103.19166016 -74.08660156 102.07082031 -73.45507812 100.91601562 C-72.2339568 98.68484698 -71.00922187 96.45565201 -69.78076172 94.22851562 C-68.08421731 91.15268572 -66.39701007 88.07199396 -64.71484375 84.98828125 C-64.25585693 84.14692627 -63.79687012 83.30557129 -63.32397461 82.4387207 C-61.56183417 79.19291195 -59.81734402 75.93782447 -58.078125 72.6796875 C-57 71 -57 71 -55 70 C-54.74476562 69.18015625 -54.48953125 68.3603125 -54.2265625 67.515625 C-52.58784899 62.81867546 -50.03342151 58.93330288 -47.375 54.75 C-46.35799845 53.14313755 -45.34477308 51.53387682 -44.3359375 49.921875 C-43.88782715 49.21643555 -43.4397168 48.51099609 -42.97802734 47.78417969 C-41.83977206 46.04681173 -41.83977206 46.04681173 -42 44 C-41.4225 43.443125 -40.845 42.88625 -40.25 42.3125 C-37.45794069 39.44288349 -35.89552841 36.52026705 -34 33 C-33.34 33 -32.68 33 -32 33 C-31.7525 31.9275 -31.505 30.855 -31.25 29.75 C-29.95872607 25.8761782 -28.93323206 24.6665746 -26 22 C-24.97296843 20.34985336 -23.96937255 18.68466455 -23 17 C-23.71019287 17.06582275 -24.42038574 17.13164551 -25.15209961 17.19946289 C-28.41313176 17.49640283 -31.67522641 17.77953838 -34.9375 18.0625 C-36.05447266 18.16626953 -37.17144531 18.27003906 -38.32226562 18.37695312 C-47.41901716 19.15057716 -55.65428683 19.8301353 -63.46875 14.54296875 C-65.97438446 12.01815851 -66 9.42335308 -66 6 C-62.81237635 3.87491756 -60.73487777 3.4979837 -57 3 C-57 3.66 -57 4.32 -57 5 C-49.1367011 5.31950199 -41.73275894 4.3818639 -34 3 C-33.03964844 2.83242187 -32.07929687 2.66484375 -31.08984375 2.4921875 C-26.42112812 1.69569728 -26.42112812 1.69569728 -22.046875 -0.015625 C-15.28258119 -3.26868233 -6.91078634 -2.27128048 0 0 Z " fill="#000000" transform="translate(86,224)"/>
<path d="M0 0 C2.88756058 0.31216871 4.53713377 0.53713377 6.625 2.625 C8 5 8 5 9.4375 8.5 C10.93411431 11.85241605 12.25520516 13.63379755 15 16 C15.0825 14.7625 15.165 13.525 15.25 12.25 C15.63354744 9.10935789 15.89891249 8.12717461 17.9375 5.5625 C21.70005738 2.71207774 24.27603852 2.51959714 29 3 C32.60625355 5.58709494 33.79263006 7.30470079 35.0625 11.5625 C35 15 35 15 33.25 17.3125 C31.53916849 18.59562363 29.77937232 19.81375178 28 21 C28.99580078 21.16435547 28.99580078 21.16435547 30.01171875 21.33203125 C35.00490666 22.22861828 38.71554737 23.18450256 43 26 C45.69254991 26.70670728 45.69254991 26.70670728 48 27 C48 27.66 48 28.32 48 29 C48.66 29.33 49.32 29.66 50 30 C49.625 32.8125 49.625 32.8125 48 36 C42.61793528 38.71590327 36.94308771 39.38759268 31 39 C31.28875 39.5775 31.5775 40.155 31.875 40.75 C32.91666667 42.83333333 33.95833333 44.91666667 35 47 C35.66 47 36.32 47 37 47 C37.268125 46.38125 37.53625 45.7625 37.8125 45.125 C39 43 39 43 42 41 C47.34545455 40.67272727 47.34545455 40.67272727 50 42 C50.125 48.75 50.125 48.75 49 51 C49.20625 52.134375 49.4125 53.26875 49.625 54.4375 C50 58 50 58 49.0625 60 C45.57292898 61.69191322 42.74367468 60.78496405 39 60 C38.67 59.34 38.34 58.68 38 58 C37.34 58 36.68 58 36 58 C32.38398784 63.57468542 32.69279941 68.60567654 33 75 C34.299375 73.824375 34.299375 73.824375 35.625 72.625 C40.01888354 68.97549203 44.28368679 67.66374628 50 68 C49 71 49 71 47.5625 72.3125 C45.77130879 74.00082424 45.77130879 74.00082424 45.125 76.875 C42.8638027 83.15610361 37.81746327 85.91430359 32.28125 89.08203125 C29.69976981 90.12081181 27.75740561 90.16991056 25 90 C21.63031166 84.72082161 20.14253443 80.11991217 19 74 C18.72929688 72.99259766 18.72929688 72.99259766 18.453125 71.96484375 C17.76534671 68.98249479 17.94142278 66.04601563 18 63 C16.865625 62.731875 15.73125 62.46375 14.5625 62.1875 C13.386875 61.795625 12.21125 61.40375 11 61 C10.67 60.01 10.34 59.02 10 58 C9.34 57.67 8.68 57.34 8 57 C8.185625 55.906875 8.37125 54.81375 8.5625 53.6875 C9.2578068 50.06375867 9.2578068 50.06375867 8 47 C10.15096215 42.6980757 13.63397247 41.55929555 18 40 C18.99 40 19.98 40 21 40 C19.32571764 36.76423875 19.32571764 36.76423875 16.3125 36.3125 C12.96323304 35.9344977 12.96323304 35.9344977 9.4375 36.0625 C6.06152625 36.00111866 4.0063126 35.45760611 1 34 C1 33.34 1 32.68 1 32 C0.21625 31.938125 -0.5675 31.87625 -1.375 31.8125 C-4 31 -4 31 -5.3125 28.75 C-6.00312861 25.98748555 -6.30590033 23.82957808 -6 21 C-4 19 -4 19 -1.125 18.75 C2.29983923 18.27252053 2.29983923 18.27252053 4.375 14.9375 C4.91125 13.968125 5.4475 12.99875 6 12 C1.545 11.01 1.545 11.01 -3 10 C-4 6 -4 6 -2.0625 2.75 C-1.381875 1.8425 -0.70125 0.935 0 0 Z M17 18 C17 18.99 17 19.98 17 21 C18.32 20.67 19.64 20.34 21 20 C19.68 19.34 18.36 18.68 17 18 Z M27 30 C26.20046862 33.28696233 25.90341064 34.71023192 27 38 C27.66 38 28.32 38 29 38 C28.67 35.36 28.34 32.72 28 30 C27.67 30 27.34 30 27 30 Z M35 50 C34.67 50.99 34.34 51.98 34 53 C34.99 53.495 34.99 53.495 36 54 C36.33 52.68 36.66 51.36 37 50 C36.34 50 35.68 50 35 50 Z M26 63 C24.02 63.99 22.04 64.98 20 66 C22.80804268 68.96404505 25.18315774 71.44499019 29 73 C28.87625 71.72125 28.7525 70.4425 28.625 69.125 C28.55539062 68.40570313 28.48578125 67.68640625 28.4140625 66.9453125 C28.13625251 64.77331755 28.13625251 64.77331755 26 63 Z " fill="#F0BCBE" transform="translate(550,212)"/>
<path d="M0 0 C0.33 0.66 0.66 1.32 1 2 C3.35599235 2.46751788 3.35599235 2.46751788 6.0625 2.625 C7.44115234 2.73714844 7.44115234 2.73714844 8.84765625 2.8515625 C9.55792969 2.90054688 10.26820313 2.94953125 11 3 C11.33 3.99 11.66 4.98 12 6 C12.66 6 13.32 6 14 6 C14.268125 5.38125 14.53625 4.7625 14.8125 4.125 C16 2 16 2 19 0 C24.34545455 -0.32727273 24.34545455 -0.32727273 27 1 C27.125 7.75 27.125 7.75 26 10 C26.20625 11.134375 26.4125 12.26875 26.625 13.4375 C27 17 27 17 26.0625 19 C22.57292898 20.69191322 19.74367468 19.78496405 16 19 C15.67 18.34 15.34 17.68 15 17 C14.34 17 13.68 17 13 17 C9.38398784 22.57468542 9.69279941 27.60567654 10 34 C10.86625 33.21625 11.7325 32.4325 12.625 31.625 C17.01888354 27.97549203 21.28368679 26.66374628 27 27 C26 30 26 30 24.5625 31.3125 C22.77130879 33.00082424 22.77130879 33.00082424 22.125 35.875 C19.8638027 42.15610361 14.81746327 44.91430359 9.28125 48.08203125 C6.69976981 49.12081181 4.75740561 49.16991056 2 49 C-1.36968834 43.72082161 -2.85746557 39.11991217 -4 33 C-4.18046875 32.32839844 -4.3609375 31.65679687 -4.546875 30.96484375 C-5.23465329 27.98249479 -5.05857722 25.04601563 -5 22 C-6.134375 21.731875 -7.26875 21.46375 -8.4375 21.1875 C-9.613125 20.795625 -10.78875 20.40375 -12 20 C-12.33 19.01 -12.66 18.02 -13 17 C-13.66 16.67 -14.32 16.34 -15 16 C-14.814375 14.906875 -14.62875 13.81375 -14.4375 12.6875 C-13.7421932 9.06375867 -13.7421932 9.06375867 -15 6 C-13.40536776 2.81073552 -11.79668426 1.89081192 -8.625 0.1875 C-5.04698821 -0.98460731 -3.47037057 -1.3269064 0 0 Z M12 9 C11.67 9.99 11.34 10.98 11 12 C11.99 12.495 11.99 12.495 13 13 C13.33 11.68 13.66 10.36 14 9 C13.34 9 12.68 9 12 9 Z M3 22 C1.02 22.99 -0.96 23.98 -3 25 C-0.19195732 27.96404505 2.18315774 30.44499019 6 32 C5.87625 30.72125 5.7525 29.4425 5.625 28.125 C5.55539062 27.40570313 5.48578125 26.68640625 5.4140625 25.9453125 C5.13625251 23.77331755 5.13625251 23.77331755 3 22 Z " fill="#D1CDBE" transform="translate(573,253)"/>
<path d="M0 0 C4.64193144 1.40133779 4.64193144 1.40133779 6.3125 4 C7.1875 6.375 7.1875 6.375 7.3125 9 C5.875 11.8125 5.875 11.8125 4.3125 14 C5.446875 14.53625 6.58125 15.0725 7.75 15.625 C10.64949314 17.28604567 11.18790481 17.65553094 12.375 20.9375 C12.30548644 24.3436645 12.17336645 26.13116422 10.3125 29 C6.9375 30.9375 6.9375 30.9375 3.3125 32 C0.875 31.1875 0.875 31.1875 -0.6875 30 C-0.625625 31.093125 -0.56375 32.18625 -0.5 33.3125 C-0.6875 37 -0.6875 37 -1.8125 38.875 C-4.50414929 40.48998958 -6.55168639 40.87456746 -9.6875 41 C-12.5 40 -12.5 40 -14.6875 38 C-15.5 34.3125 -15.5 34.3125 -15.6875 31 C-16.904375 31.268125 -18.12125 31.53625 -19.375 31.8125 C-22.964872 32.25246655 -23.48735509 32.13342994 -26.6875 30 C-28.6875 27 -28.6875 27 -29.4375 23.5 C-28.61087452 19.64241441 -28.22485987 19.24174397 -25.1875 17.0625 C-24.03507714 16.35138193 -22.87225122 15.65584442 -21.6875 15 C-22.41453125 14.34644531 -22.41453125 14.34644531 -23.15625 13.6796875 C-24.6875 12 -24.6875 12 -25.1875 9.125 C-24.51214689 4.90404303 -23.09257055 3.51679127 -19.6875 1 C-16.625 0.4375 -16.625 0.4375 -13.6875 1 C-11.3125 3 -11.3125 3 -9.6875 5 C-8.841875 4.154375 -7.99625 3.30875 -7.125 2.4375 C-4.36427138 0.12817013 -3.85254078 0 0 0 Z " fill="#DBC0CF" transform="translate(400.6875,232)"/>
<path d="M0 0 C1.32 0 2.64 0 4 0 C4.33 0.99 4.66 1.98 5 3 C4.67 3.33 4.34 3.66 4 4 C4.66386719 4.10957031 5.32773437 4.21914062 6.01171875 4.33203125 C11.00490666 5.22861828 14.71554737 6.18450256 19 9 C21.69254991 9.70670728 21.69254991 9.70670728 24 10 C24 10.66 24 11.32 24 12 C24.66 12.33 25.32 12.66 26 13 C25.625 15.8125 25.625 15.8125 24 19 C18.61793528 21.71590327 12.94308771 22.38759268 7 22 C7.66 23.65 8.32 25.3 9 27 C5.90072589 27.42539056 3.0811315 27.61414445 0 27 C-1.6364004 25.33803085 -2.64874183 23.62811109 -3.83203125 21.625 C-4.97705276 19.69414713 -4.97705276 19.69414713 -7.875 19.0625 C-10.10372097 19.01792558 -12.33367631 19.02339783 -14.5625 19.0625 C-17.93847375 19.00111866 -19.9936874 18.45760611 -23 17 C-23 16.34 -23 15.68 -23 15 C-22.01 15 -21.02 15 -20 15 C-20.103125 13.741875 -20.20625 12.48375 -20.3125 11.1875 C-20.33203125 8.98046875 -20.33203125 8.98046875 -20 7 C-17.5 5 -17.5 5 -15 4 C-15.33 6.31 -15.66 8.62 -16 11 C-14.35 11.33 -12.7 11.66 -11 12 C-11 12.66 -11 13.32 -11 14 C-10.34 14.33 -9.68 14.66 -9 15 C-7.28734005 16.01355777 -5.57956658 17.03538937 -3.875 18.0625 C-2.96492187 18.61035156 -2.05484375 19.15820312 -1.1171875 19.72265625 C-0.06917969 20.35494141 -0.06917969 20.35494141 1 21 C0.484375 20.0925 -0.03125 19.185 -0.5625 18.25 C-2.09601369 14.78292558 -2.15250534 14.35274282 -1 11 C-1 9.96875 -1 8.9375 -1 7.875 C-1 5 -1 5 0 3 C0 2.01 0 1.02 0 0 Z M3 13 C2.20046862 16.28696233 1.90341064 17.71023192 3 21 C3.66 21 4.32 21 5 21 C4.67 18.36 4.34 15.72 4 13 C3.67 13 3.34 13 3 13 Z " fill="#DCC7BE" transform="translate(574,229)"/>
<path d="M0 0 C0.33 0.66 0.66 1.32 1 2 C3.55234151 2.35561725 6.07868652 2.44379753 8.65234375 2.55859375 C9.81443359 2.77708984 9.81443359 2.77708984 11 3 C13 6 13 6 12.8125 8.5625 C12 11 12 11 9 13 C8.01 13 7.02 13 6 13 C6 13.66 6 14.32 6 15 C5.34 15 4.68 15 4 15 C4 16.65 4 18.3 4 20 C3.34 20 2.68 20 2 20 C2 20.66 2 21.32 2 22 C0.35 22.33 -1.3 22.66 -3 23 C-3.33 21.68 -3.66 20.36 -4 19 C-5.7015625 19.0309375 -5.7015625 19.0309375 -7.4375 19.0625 C-11 19 -11 19 -12 18 C-12.28807277 15.86127792 -12.50614083 13.71290157 -12.6875 11.5625 C-12.84798828 9.80099609 -12.84798828 9.80099609 -13.01171875 8.00390625 C-13 5 -13 5 -11 3 C-10.01 3 -9.02 3 -8 3 C-7.731875 3.70125 -7.46375 4.4025 -7.1875 5.125 C-5.92184924 8.18920711 -4.63894152 11.11546292 -3 14 C-2.01 14.33 -1.02 14.66 0 15 C-0.70768358 12.04199472 -0.70768358 12.04199472 -2 9 C-3.32520503 8.31731862 -4.65812182 7.6492959 -6 7 C-6.75 4.375 -6.75 4.375 -7 2 C-4 0 -4 0 0 0 Z " fill="#F5D8D8" transform="translate(573,253)"/>
<path d="M0 0 C4.55833554 0.91166711 5.5724657 2.79619855 8.125 6.625 C8.125 7.615 8.125 8.605 8.125 9.625 C9.07375 9.893125 10.0225 10.16125 11 10.4375 C14.125 11.625 14.125 11.625 16.125 14.625 C15.79166667 15.95833333 15.45833333 17.29166667 15.125 18.625 C15.785 19.615 16.445 20.605 17.125 21.625 C17.125 22.615 17.125 23.605 17.125 24.625 C16.609375 24.356875 16.09375 24.08875 15.5625 23.8125 C12.95875294 22.49561199 12.95875294 22.49561199 9.4375 21.25 C6.125 19.625 6.125 19.625 5.1875 17.4375 C5.166875 16.839375 5.14625 16.24125 5.125 15.625 C2.65 15.13 2.65 15.13 0.125 14.625 C0.125 12.645 0.125 10.665 0.125 8.625 C-3.00106964 10.22980784 -3.00106964 10.22980784 -3.38671875 12.5703125 C-3.44472656 13.28960937 -3.50273438 14.00890625 -3.5625 14.75 C-3.7171875 16.668125 -3.7171875 16.668125 -3.875 18.625 C-9.5 18.875 -9.5 18.875 -12.875 16.625 C-13.45703125 14.53125 -13.45703125 14.53125 -13.6875 12.125 C-13.77644531 11.3309375 -13.86539063 10.536875 -13.95703125 9.71875 C-13.875 7.625 -13.875 7.625 -11.875 5.625 C-10.905625 5.50125 -9.93625 5.3775 -8.9375 5.25 C-5.76493894 4.96130875 -5.76493894 4.96130875 -4.375 2.5625 C-2.875 0.625 -2.875 0.625 0 0 Z " fill="#E6C0C6" transform="translate(557.875,225.375)"/>
<path d="M0 0 C0.66 0.33 1.32 0.66 2 1 C2.125 7.75 2.125 7.75 1 10 C1.20625 11.134375 1.4125 12.26875 1.625 13.4375 C2 17 2 17 1.0625 19 C-2.34882632 20.6539764 -5.32784489 19.6621919 -9 19 C-9.6875 16.1875 -9.6875 16.1875 -10 13 C-8.75 11.125 -8.75 11.125 -7 10 C-6.01 10 -5.02 10 -4 10 C-4 9.34 -4 8.68 -4 8 C-4.66 8 -5.32 8 -6 8 C-7.4606285 5.35261084 -8 4.10551666 -8 1 C-5.26094655 -0.36952673 -3.02912668 -0.12621361 0 0 Z " fill="#EEC2C0" transform="translate(598,253)"/>
<path d="M0 0 C3 3.75 3 3.75 3 6 C3.66 6 4.32 6 5 6 C5 6.66 5 7.32 5 8 C4.01 8 3.02 8 2 8 C1.67 8.99 1.34 9.98 1 11 C0.34 11 -0.32 11 -1 11 C-1 11.99 -1 12.98 -1 14 C-2.31200404 15.35432675 -3.64631404 16.68733482 -5 18 C-6.10514766 21.31544299 -6.32107631 24.20410111 -6.5625 27.6875 C-6.64628906 28.86699219 -6.73007812 30.04648437 -6.81640625 31.26171875 C-6.87699219 32.16535156 -6.93757812 33.06898438 -7 34 C-7.66 33.34 -8.32 32.68 -9 32 C-9.33 32 -9.66 32 -10 32 C-10.99 32 -11.98 32 -13 32 C-12.505 30.515 -12.505 30.515 -12 29 C-11.34 29.33 -10.68 29.66 -10 30 C-10 28.68 -10 27.36 -10 26 C-10.66 25.67 -11.32 25.34 -12 25 C-12.05410687 23.22950311 -12.09284119 21.45853151 -12.125 19.6875 C-12.14820313 18.70136719 -12.17140625 17.71523438 -12.1953125 16.69921875 C-12 14 -12 14 -10 11 C-6.875 10.3125 -6.875 10.3125 -4 10 C-3.71125 8.72125 -3.4225 7.4425 -3.125 6.125 C-2.45897517 3.17546145 -2.19797403 2.19797403 0 0 Z " fill="#CFD8BC" transform="translate(589,255)"/>
<path d="M0 0 C7.75 -0.125 7.75 -0.125 10 1 C9.51421457 4.12290635 9.0013988 6.99580359 8 10 C9.32 9.67 10.64 9.34 12 9 C12 9.66 12 10.32 12 11 C12.66 11 13.32 11 14 11 C14 9.68 14 8.36 14 7 C16.31 7 18.62 7 21 7 C20.8125 8.8125 20.8125 8.8125 20 11 C15.42519873 14.16717011 12.53865289 15.1204055 7 15 C7 14.34 7 13.68 7 13 C6.01 13.33 5.02 13.66 4 14 C0.75099398 9.02495953 -0.49940808 6.11774896 0 0 Z " fill="#F4DBD4" transform="translate(576,234)"/>
<path d="M0 0 C0.99 0 1.98 0 3 0 C3.268125 0.70125 3.53625 1.4025 3.8125 2.125 C5.0681449 5.1649824 6.50235123 8.0727774 8 11 C9.65 11 11.3 11 13 11 C13.66 12.98 14.32 14.96 15 17 C14.34 17 13.68 17 13 17 C13 17.66 13 18.32 13 19 C11.35 19.33 9.7 19.66 8 20 C7.67 18.68 7.34 17.36 7 16 C5.2984375 16.0309375 5.2984375 16.0309375 3.5625 16.0625 C0 16 0 16 -1 15 C-1.28807277 12.86127792 -1.50614083 10.71290157 -1.6875 8.5625 C-1.84798828 6.80099609 -1.84798828 6.80099609 -2.01171875 5.00390625 C-2 2 -2 2 0 0 Z " fill="#F9E5E4" transform="translate(562,256)"/>
<path d="M0 0 C0.66 0 1.32 0 2 0 C2 0.66 2 1.32 2 2 C3.32 1.67 4.64 1.34 6 1 C6.96516243 4.00272755 7.22393475 6.04215769 6 9 C5.01 9.33 4.02 9.66 3 10 C1.8553125 11.2684375 1.8553125 11.2684375 0.6875 12.5625 C-2 15 -2 15 -5.3125 15.3125 C-6.6428125 15.1578125 -6.6428125 15.1578125 -8 15 C-7.34 14.01 -6.68 13.02 -6 12 C-6.66 11.67 -7.32 11.34 -8 11 C-8 9.68 -8 8.36 -8 7 C-7.01 6.67 -6.02 6.34 -5 6 C-3.32932867 4.00334402 -1.66247014 2.00348966 0 0 Z " fill="#E4E1D0" transform="translate(588,284)"/>
<path d="M0 0 C2.88756058 0.31216871 4.53713377 0.53713377 6.625 2.625 C8 5 8 5 9.4375 8.5 C10.93411431 11.85241605 12.25520516 13.63379755 15 16 C14.67 16.99 14.34 17.98 14 19 C13.608125 18.360625 13.21625 17.72125 12.8125 17.0625 C10.61527704 14.56221181 9.24208567 14.35049575 6 14 C6 13.34 6 12.68 6 12 C1.545 11.01 1.545 11.01 -3 10 C-4 6 -4 6 -2.0625 2.75 C-1.381875 1.8425 -0.70125 0.935 0 0 Z " fill="#BD9A8D" transform="translate(550,212)"/>
<path d="M0 0 C-1.98 0.66 -3.96 1.32 -6 2 C-5.29660434 4.50965614 -5.29660434 4.50965614 -4 7 C-1.95894361 7.88693303 -1.95894361 7.88693303 0 8 C0.33 10.31 0.66 12.62 1 15 C-0.32 15 -1.64 15 -3 15 C-4.81242323 10.9811485 -6.33501617 7.38889325 -7 3 C-8.98 3.99 -8.98 3.99 -11 5 C-10.67 9.29 -10.34 13.58 -10 18 C-7.69 18.33 -5.38 18.66 -3 19 C-2.67 20.32 -2.34 21.64 -2 23 C-0.35 22.67 1.3 22.34 3 22 C3 21.34 3 20.68 3 20 C3.99 20 4.98 20 6 20 C6 20.66 6 21.32 6 22 C1.545 23.485 1.545 23.485 -3 25 C-3.33 24.01 -3.66 23.02 -4 22 C-5.155 21.67 -6.31 21.34 -7.5 21 C-8.655 20.67 -9.81 20.34 -11 20 C-11.33 19.01 -11.66 18.02 -12 17 C-12.66 16.67 -13.32 16.34 -14 16 C-13.814375 14.906875 -13.62875 13.81375 -13.4375 12.6875 C-12.7421932 9.06375867 -12.7421932 9.06375867 -14 6 C-11.50082078 1.00164156 -5.38312995 -2.36857718 0 0 Z " fill="#E4D0CE" transform="translate(572,253)"/>
<path d="M0 0 C0.33 0 0.66 0 1 0 C1.05447047 1.41623216 1.09300508 2.83308191 1.125 4.25 C1.14820313 5.03890625 1.17140625 5.8278125 1.1953125 6.640625 C0.98022855 9.23883912 0.21346671 10.72015345 -1 13 C-1.38749213 15.32495277 -1.72982839 17.65851268 -2 20 C-2.66 19.67 -3.32 19.34 -4 19 C-4 18.01 -4 17.02 -4 16 C-4.99 16 -5.98 16 -7 16 C-6 13 -6 13 -4 10 C-4.66 10 -5.32 10 -6 10 C-6 10.66 -6 11.32 -6 12 C-6.66 12 -7.32 12 -8 12 C-9.19287411 8.12315913 -10 5.08378077 -10 1 C-7.525 1.495 -7.525 1.495 -5 2 C-4.67 3.65 -4.34 5.3 -4 7 C-3.01 6.67 -2.02 6.34 -1 6 C-0.67 4.02 -0.34 2.04 0 0 Z " fill="#D3D6C5" transform="translate(580,280)"/>
<path d="M0 0 C1.04449911 3.13349732 0.93423645 3.98968256 0 7 C1.65 7.33 3.3 7.66 5 8 C5 8.66 5 9.32 5 10 C5.66 10.33 6.32 10.66 7 11 C6.67 11.66 6.34 12.32 6 13 C5.01 13 4.02 13 3 13 C3.33 13.66 3.66 14.32 4 15 C-0.21878192 15.19622241 -3.17010894 14.80230168 -7 13 C-7 12.34 -7 11.68 -7 11 C-6.01 11 -5.02 11 -4 11 C-4.0825 9.741875 -4.165 8.48375 -4.25 7.1875 C-4.265625 4.98046875 -4.265625 4.98046875 -4 3 C-2 1 -2 1 0 0 Z " fill="#C8A19B" transform="translate(558,233)"/>
<path d="M0 0 C4.75937031 1.10485382 4.75937031 1.10485382 6.5 3.8125 C7.375 6.1875 7.375 6.1875 7.5 8.8125 C6.0625 11.625 6.0625 11.625 4.5 13.8125 C5.634375 14.34875 6.76875 14.885 7.9375 15.4375 C10.83699314 17.09854567 11.37540481 17.46803094 12.5625 20.75 C12.49298644 24.1561645 12.36086645 25.94366422 10.5 28.8125 C8.20921796 30.13207491 6.01479847 30.9276635 3.5 31.8125 C2.18 30.8225 0.86 29.8325 -0.5 28.8125 C2.8 28.4825 6.1 28.1525 9.5 27.8125 C9.5 24.5125 9.5 21.2125 9.5 17.8125 C7.19 17.1525 4.88 16.4925 2.5 15.8125 C2.5 12.8125 2.5 12.8125 3.5625 10.9375 C4.77861379 8.18097542 4.34439369 6.65273331 3.5 3.8125 C2.34354174 2.43874631 2.34354174 2.43874631 -0.8125 2.5625 C-4.59767206 2.81912183 -5.83025858 3.24954824 -8.5 5.8125 C-6.60058776 1.42924099 -5.04592015 -0.27031715 0 0 Z " fill="#CCB6C3" transform="translate(400.5,232.1875)"/>
<path d="M0 0 C3.375 -0.1875 3.375 -0.1875 7 0 C7.66 0.99 8.32 1.98 9 3 C8.66666667 4.33333333 8.33333333 5.66666667 8 7 C8.99 8.485 8.99 8.485 10 10 C10 10.99 10 11.98 10 13 C9.484375 12.731875 8.96875 12.46375 8.4375 12.1875 C5.33598585 10.67650593 2.17737194 9.34427274 -1 8 C-0.01 7.34 0.98 6.68 2 6 C1.01 5.67 0.02 5.34 -1 5 C-0.67 3.35 -0.34 1.7 0 0 Z " fill="#F7E1DD" transform="translate(565,237)"/>
<path d="M0 0 C0.99 0 1.98 0 3 0 C3.33 2.31 3.66 4.62 4 7 C3.01 6.67 2.02 6.34 1 6 C1 6.66 1 7.32 1 8 C2.32 8 3.64 8 5 8 C5 10.31 5 12.62 5 15 C3.34385343 15.38218767 1.67542976 15.71395102 0 16 C-1.87303704 14.12696296 -1.47495882 11.08263116 -1.6875 8.5625 C-1.84798828 6.80099609 -1.84798828 6.80099609 -2.01171875 5.00390625 C-2 2 -2 2 0 0 Z " fill="#FAEAEA" transform="translate(562,256)"/>
<path d="M0 0 C3 1 3 1 4.1875 2.75 C5.16000686 5.44309592 5.4263233 7.15784465 5 10 C3.1875 12.3125 3.1875 12.3125 1 14 C0.01 14 -0.98 14 -2 14 C-2 9.71 -2 5.42 -2 1 C-1.34 0.67 -0.68 0.34 0 0 Z " fill="#F1C3C4" transform="translate(580,217)"/>
<path d="M0 0 C0.66 0.33 1.32 0.66 2 1 C2 1.99 2 2.98 2 4 C3.65 4.33 5.3 4.66 7 5 C7 5.33 7 5.66 7 6 C5.02 6 3.04 6 1 6 C0.67 7.65 0.34 9.3 0 11 C1.32 11.33 2.64 11.66 4 12 C3.01 12.33 2.02 12.66 1 13 C0.34 12.67 -0.32 12.34 -1 12 C-1 11.34 -1 10.68 -1 10 C-2.65 9.67 -4.3 9.34 -6 9 C-5.69381595 5.32579134 -5.24228216 4.21864487 -2.4375 1.6875 C-1.633125 1.130625 -0.82875 0.57375 0 0 Z " fill="#E7C5C2" transform="translate(564,231)"/>
<path d="M0 0 C2.375 0.25 2.375 0.25 5 1 C6.3125 3.0625 6.3125 3.0625 7 5 C5.35 5.33 3.7 5.66 2 6 C2 6.99 2 7.98 2 9 C2.99 9.33 3.98 9.66 5 10 C2.1875 10.625 2.1875 10.625 -1 11 C-1.99 10.34 -2.98 9.68 -4 9 C-3.35455571 5.51460083 -1.89865603 2.97180943 0 0 Z " fill="#EDBDBB" transform="translate(550,212)"/>
<path d="M0 0 C3 3.75 3 3.75 3 6 C3.66 6 4.32 6 5 6 C5 6.66 5 7.32 5 8 C4.01 8 3.02 8 2 8 C1.67 8.99 1.34 9.98 1 11 C0.34 11 -0.32 11 -1 11 C-1 11.99 -1 12.98 -1 14 C-1.66 14 -2.32 14 -3 14 C-3.08153933 12.41753293 -3.13943557 10.83383727 -3.1875 9.25 C-3.22230469 8.36828125 -3.25710938 7.4865625 -3.29296875 6.578125 C-2.94923684 3.55328417 -1.99772541 2.24416398 0 0 Z " fill="#D9A6A4" transform="translate(589,255)"/>
<path d="M0 0 C2.4375 0.1875 2.4375 0.1875 3.4375 1.1875 C3.5625 4.1875 3.5625 4.1875 3.4375 7.1875 C2.4375 8.1875 2.4375 8.1875 -0.5625 8.3125 C-3.5625 8.1875 -3.5625 8.1875 -4.5625 7.1875 C-4.75 4.75 -4.75 4.75 -4.5625 2.1875 C-2.5625 0.1875 -2.5625 0.1875 0 0 Z " fill="#FBE8C3" transform="translate(392.5625,246.8125)"/>
<path d="M0 0 C2.31 0 4.62 0 7 0 C6.8125 1.8125 6.8125 1.8125 6 4 C1.42519873 7.16717011 -1.46134711 8.1204055 -7 8 C-7.33 7.01 -7.66 6.02 -8 5 C-6.02 5 -4.04 5 -2 5 C-1.34 3.35 -0.68 1.7 0 0 Z " fill="#F8DED7" transform="translate(590,241)"/>
<path d="M0 0 C2.475 0.99 2.475 0.99 5 2 C4.01 2.33 3.02 2.66 2 3 C2.33 3.70125 2.66 4.4025 3 5.125 C4.09044562 8.26003116 4.15322643 10.70563182 4 14 C4.66 14 5.32 14 6 14 C6 13.34 6 12.68 6 12 C6.66 12 7.32 12 8 12 C7.42655063 14.86724686 7.1385485 15.8614515 5 18 C5.99 18 6.98 18 8 18 C8.33 19.32 8.66 20.64 9 22 C5.59205654 20.62110464 4.29875681 19.41719395 2.8125 16.0625 C0.63454776 10.81833264 0.21048161 5.63038315 0 0 Z " fill="#C4C1B5" transform="translate(568,278)"/>
<path d="M0 0 C0.66 0.66 1.32 1.32 2 2 C1.505 2.4125 1.01 2.825 0.5 3.25 C-1.43386092 5.12202338 -1.43386092 5.12202338 -1 9 C-2.33704735 14.57103064 -2.33704735 14.57103064 -5.125 16.375 C-5.74375 16.58125 -6.3625 16.7875 -7 17 C-7.6875 14.1875 -7.6875 14.1875 -8 11 C-6.75 9.125 -6.75 9.125 -5 8 C-4.01 8 -3.02 8 -2 8 C-2 7.34 -2 6.68 -2 6 C-2.66 6 -3.32 6 -4 6 C-4.33 5.01 -4.66 4.02 -5 3 C-3.35 2.01 -1.7 1.02 0 0 Z " fill="#F0BCB8" transform="translate(596,255)"/>
<path d="M0 0 C-0.33 3.3 -0.66 6.6 -1 10 C-2.98 10.33 -4.96 10.66 -7 11 C-7.33 9.35 -7.66 7.7 -8 6 C-6.85675161 4.9970458 -5.71032809 3.99770973 -4.5625 3 C-3.92441406 2.443125 -3.28632812 1.88625 -2.62890625 1.3125 C-1 0 -1 0 0 0 Z " fill="#F49E9C" transform="translate(578,216)"/>
<path d="M0 0 C1.3921875 0.2784375 1.3921875 0.2784375 2.8125 0.5625 C6.01343771 1.24123881 6.01343771 1.24123881 9 0 C8.67 1.65 8.34 3.3 8 5 C9.32 4.67 10.64 4.34 12 4 C12.33 5.32 12.66 6.64 13 8 C9.66666667 8 6.33333333 8 3 8 C0 2.25 0 2.25 0 0 Z " fill="#F4CBC0" transform="translate(576,239)"/>
<path d="M0 0 C1.32 0 2.64 0 4 0 C4.33 0.99 4.66 1.98 5 3 C4.67 3.66 4.34 4.32 4 5 C3.34 5 2.68 5 2 5 C2.09539063 5.61488281 2.19078125 6.22976562 2.2890625 6.86328125 C2.39992188 7.67152344 2.51078125 8.47976562 2.625 9.3125 C2.74101563 10.11300781 2.85703125 10.91351563 2.9765625 11.73828125 C3 14 3 14 1 17 C0.01 16.34 -0.98 15.68 -2 15 C-1.835 14.46375 -1.67 13.9275 -1.5 13.375 C-0.89270287 10.89484882 -0.89270287 10.89484882 -1 7.875 C-1 5 -1 5 0 3 C0 2.01 0 1.02 0 0 Z " fill="#BEBEA7" transform="translate(574,229)"/>
<path d="M0 0 C2.9375 0.8125 2.9375 0.8125 6 2 C7.03159626 5.09478879 6.97482862 6.52631393 6.5625 9.6875 C6.46066406 10.49574219 6.35882812 11.30398438 6.25390625 12.13671875 C6.17011719 12.75160156 6.08632813 13.36648438 6 14 C5.34 13.67 4.68 13.34 4 13 C4 12.01 4 11.02 4 10 C3.01 10 2.02 10 1 10 C2 7 2 7 4 4 C3.34 4 2.68 4 2 4 C2 4.66 2 5.32 2 6 C1.34 6 0.68 6 0 6 C0 4.02 0 2.04 0 0 Z " fill="#DBDDCA" transform="translate(572,286)"/>
<path d="M0 0 C2 3 2 3 3 5 C5.32156597 5.40729228 7.6568787 5.74438677 10 6 C10.33 7.32 10.66 8.64 11 10 C12.65 9.67 14.3 9.34 16 9 C16 8.34 16 7.68 16 7 C16.99 7 17.98 7 19 7 C19 7.66 19 8.32 19 9 C16.03 9.99 13.06 10.98 10 12 C9.67 11.01 9.34 10.02 9 9 C7.845 8.67 6.69 8.34 5.5 8 C4.345 7.67 3.19 7.34 2 7 C1.67 6.01 1.34 5.02 1 4 C0.34 3.67 -0.32 3.34 -1 3 C-0.67 2.01 -0.34 1.02 0 0 Z " fill="#DECFCC" transform="translate(559,266)"/>
<path d="M0 0 C0.99 0 1.98 0 3 0 C3 0.66 3 1.32 3 2 C2.01 2 1.02 2 0 2 C0.99 3.98 1.98 5.96 3 8 C2.01 8.495 2.01 8.495 1 9 C1.66 9.66 2.32 10.32 3 11 C-0.22791555 13.1519437 -1.28400809 13.20086443 -5 13 C-5 12.34 -5 11.68 -5 11 C-4.01 11 -3.02 11 -2 11 C-2.02320313 10.37351562 -2.04640625 9.74703125 -2.0703125 9.1015625 C-2.08835937 8.28429687 -2.10640625 7.46703125 -2.125 6.625 C-2.14820313 5.81289063 -2.17140625 5.00078125 -2.1953125 4.1640625 C-2 2 -2 2 0 0 Z " fill="#BCBBAA" transform="translate(580,289)"/>
<path d="M0 0 C0.33 0 0.66 0 1 0 C1 4.95 1 9.9 1 15 C0.34 14.34 -0.32 13.68 -1 13 C-1.33 13 -1.66 13 -2 13 C-2.99 13 -3.98 13 -5 13 C-4.67 12.01 -4.34 11.02 -4 10 C-3.34 10.33 -2.68 10.66 -2 11 C-2 9.68 -2 8.36 -2 7 C-2.66 6.67 -3.32 6.34 -4 6 C-3.67 5.01 -3.34 4.02 -3 3 C-2.34 3 -1.68 3 -1 3 C-0.67 2.01 -0.34 1.02 0 0 Z " fill="#BBBFAA" transform="translate(581,274)"/>
<path d="M0 0 C1.5625 1.25 1.5625 1.25 3 3 C2.70630173 4.34262065 2.3721042 5.67696283 2 7 C2.99 8.485 2.99 8.485 4 10 C4 10.99 4 11.98 4 13 C3.443125 12.71125 2.88625 12.4225 2.3125 12.125 C-0.08494645 10.9586747 -2.51596939 9.9660119 -5 9 C-3.68 8.67 -2.36 8.34 -1 8 C-0.67 5.36 -0.34 2.72 0 0 Z " fill="#E3D6CC" transform="translate(571,237)"/>
<path d="M0 0 C1.04449911 3.13349732 0.93423645 3.98968256 0 7 C1.32 7.66 2.64 8.32 4 9 C2.02 9.99 2.02 9.99 0 11 C-0.66 9.02 -1.32 7.04 -2 5 C-2.33 7.31 -2.66 9.62 -3 12 C-4.32 12.33 -5.64 12.66 -7 13 C-7 12.34 -7 11.68 -7 11 C-6.01 11 -5.02 11 -4 11 C-4.0825 9.741875 -4.165 8.48375 -4.25 7.1875 C-4.265625 4.98046875 -4.265625 4.98046875 -4 3 C-2 1 -2 1 0 0 Z " fill="#CEA5A7" transform="translate(558,233)"/>
<path d="M0 0 C2.125 0.375 2.125 0.375 4 1 C3.62875 1.928125 3.2575 2.85625 2.875 3.8125 C2.58625 4.864375 2.2975 5.91625 2 7 C2.99 8.485 2.99 8.485 4 10 C2.35 10 0.7 10 -1 10 C-1.66 8.68 -2.32 7.36 -3 6 C-2.34 6 -1.68 6 -1 6 C-1.20625 5.38125 -1.4125 4.7625 -1.625 4.125 C-1.74875 3.42375 -1.8725 2.7225 -2 2 C-1.34 1.34 -0.68 0.68 0 0 Z " fill="#F4CFD5" transform="translate(550,233)"/>
<path d="M0 0 C0.99 0.495 0.99 0.495 2 1 C2 1.99 2 2.98 2 4 C3.65 4 5.3 4 7 4 C7.33 3.34 7.66 2.68 8 2 C8.66 2.33 9.32 2.66 10 3 C10 4.98 10 6.96 10 9 C5.545 8.01 5.545 8.01 1 7 C0 2.25 0 2.25 0 0 Z " fill="#D8C0B8" transform="translate(565,229)"/>
<path d="M0 0 C2 2 2 2 2.1875 5.0625 C2 8 2 8 1 9 C-0.66617115 9.04063832 -2.33388095 9.042721 -4 9 C-2.25 2.25 -2.25 2.25 0 0 Z " fill="#F7CAC7" transform="translate(596,262)"/>
<path d="M0 0 C1.65 0.33 3.3 0.66 5 1 C5 2.32 5 3.64 5 5 C3.125 6.0625 3.125 6.0625 1 7 C0.34 6.67 -0.32 6.34 -1 6 C-0.67 4.02 -0.34 2.04 0 0 Z " fill="#E4B8BF" transform="translate(558,228)"/>
<path d="M0 0 C1.093125 0.0825 2.18625 0.165 3.3125 0.25 C3.6425 1.24 3.9725 2.23 4.3125 3.25 C2.9925 3.25 1.6725 3.25 0.3125 3.25 C-2.39876384 4.67621684 -2.39876384 4.67621684 -4.6875 6.25 C-5.3475 5.59 -6.0075 4.93 -6.6875 4.25 C-4.79150483 0.68106792 -4.16790733 0.28256999 0 0 Z " fill="#EFB8B7" transform="translate(575.6875,214.75)"/>
<path d="M0 0 C0.99 0 1.98 0 3 0 C3.33 1.32 3.66 2.64 4 4 C3.34 4 2.68 4 2 4 C1.34 5.32 0.68 6.64 0 8 C-1.65 7.67 -3.3 7.34 -5 7 C-5 6.01 -5 5.02 -5 4 C-4.01 4.495 -4.01 4.495 -3 5 C-2.67 4.67 -2.34 4.34 -2 4 C-1.34 3.67 -0.68 3.34 0 3 C0 2.01 0 1.02 0 0 Z " fill="#AFAF9A" transform="translate(579,247)"/>
<path d="M0 0 C1.32 0 2.64 0 4 0 C3.125 4.75 3.125 4.75 2 7 C0.68 6.67 -0.64 6.34 -2 6 C-1.125 1.125 -1.125 1.125 0 0 Z " fill="#F7DEDE" transform="translate(560,234)"/>
<path d="M0 0 C0.66 0.66 1.32 1.32 2 2 C-0.25 4.0625 -0.25 4.0625 -3 6 C-5.3125 5.75 -5.3125 5.75 -7 5 C-7 3.68 -7 2.36 -7 1 C-5.5459375 1.0309375 -5.5459375 1.0309375 -4.0625 1.0625 C-1.12534105 1.35618499 -1.12534105 1.35618499 0 0 Z " fill="#E0DDCC" transform="translate(587,290)"/>
<path d="M0 0 C0.33 0.99 0.66 1.98 1 3 C-1.3125 5.5 -1.3125 5.5 -4 8 C-4.99 8 -5.98 8 -7 8 C-4.18918919 0 -4.18918919 0 0 0 Z " fill="#F1F0E1" transform="translate(590,284)"/>
<path d="M0 0 C2.97 0.495 2.97 0.495 6 1 C6.33 3.31 6.66 5.62 7 8 C5.68 8 4.36 8 3 8 C2.01 5.36 1.02 2.72 0 0 Z " fill="#DD9B8E" transform="translate(566,260)"/>
<path d="M0 0 C1.65 0.33 3.3 0.66 5 1 C5 2.65 5 4.3 5 6 C2.03 5.505 2.03 5.505 -1 5 C-1.33 4.01 -1.66 3.02 -2 2 C-1.34 2 -0.68 2 0 2 C0 1.34 0 0.68 0 0 Z " fill="#C7826D" transform="translate(585,239)"/>
<path d="M0 0 C0.6875 1.8125 0.6875 1.8125 1 4 C-0.25 5.75 -0.25 5.75 -2 7 C-2.99 7 -3.98 7 -5 7 C-5 5.35 -5 3.7 -5 2 C-3.35 1.34 -1.7 0.68 0 0 Z " fill="#BFBBAC" transform="translate(585,266)"/>
<path d="M0 0 C1.2065625 0.0309375 1.2065625 0.0309375 2.4375 0.0625 C2.4375 1.7125 2.4375 3.3625 2.4375 5.0625 C0.7875 5.0625 -0.8625 5.0625 -2.5625 5.0625 C-3.125 3.125 -3.125 3.125 -3.5625 1.0625 C-2.5625 0.0625 -2.5625 0.0625 0 0 Z " fill="#FCEEB2" transform="translate(392.5625,248.9375)"/>
<path d="M0 0 C1.125 1.6875 1.125 1.6875 2 4 C1.08326247 7.13218656 -0.18017929 9.27026894 -2 12 C-3.00724314 8.97827058 -3.30681401 7.14484365 -3 4 C-1.5 1.6875 -1.5 1.6875 0 0 Z " fill="#F3CBCB" transform="translate(569,216)"/>
<path d="M0 0 C0.66 0 1.32 0 2 0 C1.42655063 2.86724686 1.1385485 3.8614515 -1 6 C-0.01 6 0.98 6 2 6 C2.33 7.32 2.66 8.64 3 10 C-0.16115776 8.63016497 -0.9927092 8.0109362 -3 5 C-3 4.01 -3 3.02 -3 2 C-2.01 2 -1.02 2 0 2 C0 1.34 0 0.68 0 0 Z " fill="#C9CBBA" transform="translate(574,290)"/>
<path d="M0 0 C0.66 0.33 1.32 0.66 2 1 C-1.66666667 4.66666667 -5.33333333 8.33333333 -9 12 C-9 8.42129926 -8.35127433 7.60319658 -6 5 C-3.8125 3.75 -3.8125 3.75 -2 3 C-2 2.34 -2 1.68 -2 1 C-1.34 0.67 -0.68 0.34 0 0 Z " fill="#0A0909" transform="translate(537,279)"/>
<path d="M0 0 C0.99 0 1.98 0 3 0 C3.33 1.65 3.66 3.3 4 5 C2.68 5 1.36 5 0 5 C0 6.65 0 8.3 0 10 C-0.33 10 -0.66 10 -1 10 C-1.9765625 3.9453125 -1.9765625 3.9453125 -2 2 C-1.34 1.34 -0.68 0.68 0 0 Z " fill="#F7E2E1" transform="translate(562,256)"/>
<path d="M0 0 C1.98 0 3.96 0 6 0 C7.2380014 3.57644848 6.74926071 6.33694766 6 10 C5.01 9.34 4.02 8.68 3 8 C3.66 6.02 4.32 4.04 5 2 C3.35 2.33 1.7 2.66 0 3 C0 2.01 0 1.02 0 0 Z " fill="#ECCAD0" transform="translate(548,232)"/>
<path d="M0 0 C1.0625 1.8125 1.0625 1.8125 2 4 C1.67 4.99 1.34 5.98 1 7 C-0.32 7 -1.64 7 -3 7 C-3.33 7.99 -3.66 8.98 -4 10 C-4.66 8.35 -5.32 6.7 -6 5 C-4.02 4.67 -2.04 4.34 0 4 C0 2.68 0 1.36 0 0 Z " fill="#F9B3B4" transform="translate(577,222)"/>
<path d="M0 0 C2.79593783 1.39796892 2.95173777 3.13474989 4 6 C4.33 6.66 4.66 7.32 5 8 C4.34 8 3.68 8 3 8 C3 8.66 3 9.32 3 10 C2.34 10 1.68 10 1 10 C1 7.69 1 5.38 1 3 C-0.32 3 -1.64 3 -3 3 C-3 2.34 -3 1.68 -3 1 C-2.01 0.67 -1.02 0.34 0 0 Z " fill="#F4D5D1" transform="translate(566,261)"/>
<path d="M0 0 C0.66 0.66 1.32 1.32 2 2 C1.505 2.4125 1.01 2.825 0.5 3.25 C-1.43386092 5.12202338 -1.43386092 5.12202338 -1 9 C-2.32 8.67 -3.64 8.34 -5 8 C-4.01 8 -3.02 8 -2 8 C-2 7.34 -2 6.68 -2 6 C-2.66 6 -3.32 6 -4 6 C-4.33 5.01 -4.66 4.02 -5 3 C-3.35 2.01 -1.7 1.02 0 0 Z " fill="#F2B3AE" transform="translate(596,255)"/>
<path d="M0 0 C0.66 0 1.32 0 2 0 C4.29013653 3.4352048 4.17842973 4.985331 4 9 C3.01 9 2.02 9 1 9 C0.67 6.03 0.34 3.06 0 0 Z " fill="#FCCECF" transform="translate(578,219)"/>
<path d="M0 0 C2.9375 0.75 2.9375 0.75 6 2 C6.875 4.125 6.875 4.125 7 6 C3.62537285 5.45276317 1.91765 4.9451 -1 3 C-0.67 2.01 -0.34 1.02 0 0 Z " fill="#DEBAB1" transform="translate(586,235)"/>
<path d="M0 0 C-1 3 -1 3 -3.0625 4.1875 C-3.701875 4.455625 -4.34125 4.72375 -5 5 C-6.32 3.68 -7.64 2.36 -9 1 C-5.92677456 0.08941469 -3.19902639 -0.08886184 0 0 Z " fill="#AFAA9C" transform="translate(600,280)"/>
<path d="M0 0 C1.98 0 3.96 0 6 0 C6 0.99 6 1.98 6 3 C4.68 2.67 3.36 2.34 2 2 C1.67 2.99 1.34 3.98 1 5 C0.34 5 -0.32 5 -1 5 C-0.67 3.35 -0.34 1.7 0 0 Z " fill="#EDD0D4" transform="translate(555,226)"/>
<path d="M0 0 C1.32 0 2.64 0 4 0 C4.33 0.99 4.66 1.98 5 3 C4.67 3.66 4.34 4.32 4 5 C3.34 5 2.68 5 2 5 C1.67 6.32 1.34 7.64 1 9 C0.67 6.03 0.34 3.06 0 0 Z " fill="#BE9B88" transform="translate(574,229)"/>
<path d="M0 0 C0 0.66 0 1.32 0 2 C-0.639375 2.103125 -1.27875 2.20625 -1.9375 2.3125 C-2.618125 2.539375 -3.29875 2.76625 -4 3 C-4.33 3.99 -4.66 4.98 -5 6 C-5.66 6 -6.32 6 -7 6 C-7.33 6.66 -7.66 7.32 -8 8 C-7.125 3.25 -7.125 3.25 -6 1 C-3 0 -3 0 0 0 Z " fill="#D1C6BC" transform="translate(585,265)"/>
<path d="M0 0 C2.475 0.99 2.475 0.99 5 2 C5 4.31 5 6.62 5 9 C1.9083091 6.47043472 1.09068668 3.77545388 0 0 Z " fill="#E3CFC4" transform="translate(576,239)"/>
<path d="M0 0 C0.66 0.33 1.32 0.66 2 1 C1.67 2.32 1.34 3.64 1 5 C2.32 5.66 3.64 6.32 5 7 C3.02 7.99 3.02 7.99 1 9 C-1.125 2.25 -1.125 2.25 0 0 Z " fill="#E5BCB8" transform="translate(557,235)"/>
<path d="M0 0 C3.68754757 0.49831724 5.60490662 1.10067643 8 4 C7.67 4.99 7.34 5.98 7 7 C6.4121875 6.0409375 6.4121875 6.0409375 5.8125 5.0625 C3.61527704 2.56221181 2.24208567 2.35049575 -1 2 C-0.67 1.34 -0.34 0.68 0 0 Z " fill="#BFB1A5" transform="translate(557,224)"/>
<path d="M0 0 C3 2 3 2 3.6875 5.125 C3.8421875 6.548125 3.8421875 6.548125 4 8 C3.01 8 2.02 8 1 8 C0 2.25 0 2.25 0 0 Z " fill="#CDD4B9" transform="translate(574,245)"/>
<path d="M0 0 C1.32 0.33 2.64 0.66 4 1 C3.34 2.32 2.68 3.64 2 5 C0.68 4.34 -0.64 3.68 -2 3 C-1.34 2.01 -0.68 1.02 0 0 Z " fill="#F8DAE0" transform="translate(550,233)"/>
<path d="M0 0 C1.32 0.66 2.64 1.32 4 2 C3.01 2.495 3.01 2.495 2 3 C2 3.99 2 4.98 2 6 C1.34 6 0.68 6 0 6 C-0.38218767 4.34385343 -0.71395102 2.67542976 -1 1 C-0.67 0.67 -0.34 0.34 0 0 Z " fill="#E79293" transform="translate(571,221)"/>
<path d="M0 0 C0.66 0.33 1.32 0.66 2 1 C1.67 2.32 1.34 3.64 1 5 C-0.32 5.33 -1.64 5.66 -3 6 C-2.625 3.5625 -2.625 3.5625 -2 1 C-1.34 0.67 -0.68 0.34 0 0 Z " fill="#DE9794" transform="translate(554,216)"/>
<path d="M0 0 C2.31 0.33 4.62 0.66 7 1 C7 1.66 7 2.32 7 3 C5.35 3.33 3.7 3.66 2 4 C2 3.01 2 2.02 2 1 C1.34 0.67 0.68 0.34 0 0 Z " fill="#D1837D" transform="translate(587,260)"/>
<path d="M0 0 C1.5 1.3125 1.5 1.3125 3 3 C3 3.99 3 4.98 3 6 C0.53199953 4.84826645 -1.04783565 3.95216435 -3 2 C-2.01 2 -1.02 2 0 2 C0 1.34 0 0.68 0 0 Z " fill="#DEE0CE" transform="translate(572,244)"/>
<path d="M0 0 C1.65 0 3.3 0 5 0 C4.67 1.65 4.34 3.3 4 5 C2.68 4.67 1.36 4.34 0 4 C0 2.68 0 1.36 0 0 Z " fill="#F7EAE0" transform="translate(576,235)"/>
<path d="M0 0 C0 1.98 0 3.96 0 6 C-2.475 5.01 -2.475 5.01 -5 4 C-1.125 0 -1.125 0 0 0 Z " fill="#F4A8A8" transform="translate(578,216)"/>
<path d="M0 0 C0.99 0.495 0.99 0.495 2 1 C1.01 1.495 1.01 1.495 0 2 C0 1.34 0 0.68 0 0 Z " fill="#020202" transform="translate(477,333)"/>
<path d="" fill="#0D0D0D" transform="translate(0,0)"/>
<path d="M0 0 C0.33 0.66 0.66 1.32 1 2 C0.34 1.67 -0.32 1.34 -1 1 C-0.67 0.67 -0.34 0.34 0 0 Z " fill="#060606" transform="translate(155,296)"/>
<path d="" fill="#211E1D" transform="translate(0,0)"/>
<path d="" fill="#080808" transform="translate(0,0)"/>
<path d="M0 0 C3 1 3 1 3 1 Z " fill="#877673" transform="translate(553,260)"/>
<path d="" fill="#080808" transform="translate(0,0)"/>
<path d="M0 0 C2 1 2 1 2 1 Z " fill="#070707" transform="translate(33,344)"/>
<path d="" fill="#080808" transform="translate(0,0)"/>
<path d="" fill="#070707" transform="translate(0,0)"/>
<path d="M0 0 C2 1 2 1 2 1 Z " fill="#030303" transform="translate(495,342)"/>
<path d="M0 0 C2 1 2 1 2 1 Z " fill="#050505" transform="translate(0,341)"/>
<path d="" fill="#050505" transform="translate(0,0)"/>
<path d="M0 0 C2 1 2 1 2 1 Z " fill="#020202" transform="translate(390,334)"/>
<path d="M0 0 C2 1 2 1 2 1 Z " fill="#070707" transform="translate(157,325)"/>
<path d="M0 0 C2 1 2 1 2 1 Z " fill="#080808" transform="translate(235,322)"/>
<path d="" fill="#070707" transform="translate(0,0)"/>
<path d="M0 0 C2 1 2 1 2 1 Z " fill="#0B0B0B" transform="translate(328,318)"/>
<path d="" fill="#1D1B1C" transform="translate(0,0)"/>
<path d="M0 0 C2 1 2 1 2 1 Z " fill="#030303" transform="translate(44,313)"/>
<path d="M0 0 C2 1 2 1 2 1 Z " fill="#060606" transform="translate(417,312)"/>
<path d="M0 0 C2 1 2 1 2 1 Z " fill="#786F6A" transform="translate(581,306)"/>
<path d="" fill="#252223" transform="translate(0,0)"/>
<path d="" fill="#050505" transform="translate(0,0)"/>
<path d="M0 0 C2 1 2 1 2 1 Z " fill="#242122" transform="translate(428,300)"/>
<path d="M0 0 C2 1 2 1 2 1 Z " fill="#020202" transform="translate(240,300)"/>
<path d="" fill="#030303" transform="translate(0,0)"/>
<path d="M0 0 C2 1 2 1 2 1 Z " fill="#060606" transform="translate(123,290)"/>
<path d="" fill="#040404" transform="translate(0,0)"/>
<path d="M0 0 C2 1 2 1 2 1 Z " fill="#262223" transform="translate(358,282)"/>
<path d="" fill="#342F31" transform="translate(0,0)"/>
<path d="" fill="#342E31" transform="translate(0,0)"/>
<path d="M0 0 C2 1 2 1 2 1 Z " fill="#353032" transform="translate(416,275)"/>
<path d="" fill="#020202" transform="translate(0,0)"/>
<path d="M0 0 C2 1 2 1 2 1 Z " fill="#050505" transform="translate(29,245)"/>
<path d="" fill="#070707" transform="translate(0,0)"/>
<path d="" fill="#060606" transform="translate(0,0)"/>
<path d="" fill="#050505" transform="translate(0,0)"/>
<path d="" fill="#E5C3BF" transform="translate(0,0)"/>
<path d="M0 0 C2 1 2 1 2 1 Z " fill="#E4C1BD" transform="translate(569,208)"/>
<path d="" fill="#090909" transform="translate(0,0)"/>
<path d="" fill="#090909" transform="translate(0,0)"/>
<path d="" fill="#0A0A0A" transform="translate(0,0)"/>
<path d="" fill="#050505" transform="translate(0,0)"/>
<path d="" fill="#050505" transform="translate(0,0)"/>
<path d="" fill="#030303" transform="translate(0,0)"/>
<path d="" fill="#050505" transform="translate(0,0)"/>
<path d="" fill="#030303" transform="translate(0,0)"/>
<path d="" fill="#040404" transform="translate(0,0)"/>
<path d="" fill="#070707" transform="translate(0,0)"/>
<path d="" fill="#020202" transform="translate(0,0)"/>
<path d="" fill="#000000" transform="translate(0,0)"/>
<path d="" fill="#040404" transform="translate(0,0)"/>
<path d="" fill="#010101" transform="translate(0,0)"/>
<path d="" fill="#020202" transform="translate(0,0)"/>
<path d="" fill="#080808" transform="translate(0,0)"/>
<path d="" fill="#000000" transform="translate(0,0)"/>
<path d="" fill="#010101" transform="translate(0,0)"/>
<path d="" fill="#020202" transform="translate(0,0)"/>
<path d="" fill="#0D0D0D" transform="translate(0,0)"/>
<path d="" fill="#070707" transform="translate(0,0)"/>
<path d="" fill="#030303" transform="translate(0,0)"/>
<path d="" fill="#090909" transform="translate(0,0)"/>
<path d="" fill="#040404" transform="translate(0,0)"/>
<path d="" fill="#060606" transform="translate(0,0)"/>
<path d="" fill="#2A2A27" transform="translate(0,0)"/>
<path d="" fill="#1F1F1D" transform="translate(0,0)"/>
<path d="" fill="#080808" transform="translate(0,0)"/>
<path d="" fill="#070707" transform="translate(0,0)"/>
<path d="" fill="#070707" transform="translate(0,0)"/>
<path d="" fill="#080808" transform="translate(0,0)"/>
<path d="" fill="#0D0D0D" transform="translate(0,0)"/>
<path d="" fill="#080808" transform="translate(0,0)"/>
<path d="" fill="#010101" transform="translate(0,0)"/>
<path d="" fill="#020202" transform="translate(0,0)"/>
<path d="" fill="#080808" transform="translate(0,0)"/>
<path d="" fill="#040404" transform="translate(0,0)"/>
<path d="" fill="#050505" transform="translate(0,0)"/>
<path d="" fill="#080808" transform="translate(0,0)"/>
<path d="" fill="#070707" transform="translate(0,0)"/>
<path d="" fill="#080808" transform="translate(0,0)"/>
<path d="" fill="#010101" transform="translate(0,0)"/>
<path d="" fill="#0E0E0E" transform="translate(0,0)"/>
<path d="" fill="#080808" transform="translate(0,0)"/>
<path d="" fill="#020202" transform="translate(0,0)"/>
<path d="" fill="#101010" transform="translate(0,0)"/>
<path d="" fill="#030303" transform="translate(0,0)"/>
<path d="" fill="#020202" transform="translate(0,0)"/>
<path d="" fill="#030303" transform="translate(0,0)"/>
<path d="" fill="#030303" transform="translate(0,0)"/>
<path d="" fill="#030303" transform="translate(0,0)"/>
<path d="" fill="#010101" transform="translate(0,0)"/>
<path d="" fill="#010101" transform="translate(0,0)"/>
<path d="" fill="#020202" transform="translate(0,0)"/>
<path d="" fill="#020202" transform="translate(0,0)"/>
<path d="" fill="#060606" transform="translate(0,0)"/>
<path d="" fill="#070707" transform="translate(0,0)"/>
<path d="" fill="#020202" transform="translate(0,0)"/>
<path d="" fill="#040404" transform="translate(0,0)"/>
<path d="" fill="#060606" transform="translate(0,0)"/>
<path d="" fill="#070707" transform="translate(0,0)"/>
<path d="" fill="#070707" transform="translate(0,0)"/>
<path d="" fill="#030303" transform="translate(0,0)"/>
<path d="" fill="#070707" transform="translate(0,0)"/>
<path d="" fill="#040404" transform="translate(0,0)"/>
<path d="" fill="#0E0E0E" transform="translate(0,0)"/>
<path d="" fill="#070707" transform="translate(0,0)"/>
<path d="" fill="#0D0D0D" transform="translate(0,0)"/>
<path d="" fill="#070707" transform="translate(0,0)"/>
<path d="" fill="#070707" transform="translate(0,0)"/>
<path d="" fill="#070707" transform="translate(0,0)"/>
<path d="" fill="#020202" transform="translate(0,0)"/>
<path d="" fill="#040404" transform="translate(0,0)"/>
<path d="" fill="#020202" transform="translate(0,0)"/>
<path d="" fill="#070707" transform="translate(0,0)"/>
<path d="" fill="#080808" transform="translate(0,0)"/>
<path d="" fill="#040404" transform="translate(0,0)"/>
<path d="" fill="#020202" transform="translate(0,0)"/>
<path d="" fill="#030303" transform="translate(0,0)"/>
<path d="" fill="#070707" transform="translate(0,0)"/>
<path d="" fill="#080808" transform="translate(0,0)"/>
<path d="" fill="#070707" transform="translate(0,0)"/>
<path d="" fill="#070707" transform="translate(0,0)"/>
<path d="" fill="#010101" transform="translate(0,0)"/>
<path d="" fill="#050505" transform="translate(0,0)"/>
<path d="" fill="#40403C" transform="translate(0,0)"/>
<path d="" fill="#21211F" transform="translate(0,0)"/>
<path d="" fill="#060606" transform="translate(0,0)"/>
<path d="" fill="#070707" transform="translate(0,0)"/>
<path d="" fill="#030303" transform="translate(0,0)"/>
<path d="" fill="#040404" transform="translate(0,0)"/>
<path d="" fill="#080808" transform="translate(0,0)"/>
<path d="" fill="#040404" transform="translate(0,0)"/>
<path d="" fill="#080808" transform="translate(0,0)"/>
<path d="" fill="#050505" transform="translate(0,0)"/>
<path d="" fill="#040404" transform="translate(0,0)"/>
<path d="" fill="#020202" transform="translate(0,0)"/>
<path d="" fill="#040404" transform="translate(0,0)"/>
<path d="" fill="#010101" transform="translate(0,0)"/>
<path d="" fill="#030303" transform="translate(0,0)"/>
<path d="" fill="#020202" transform="translate(0,0)"/>
<path d="" fill="#090909" transform="translate(0,0)"/>
<path d="" fill="#050505" transform="translate(0,0)"/>
<path d="" fill="#242322" transform="translate(0,0)"/>
<path d="" fill="#020202" transform="translate(0,0)"/>
<path d="" fill="#010101" transform="translate(0,0)"/>
<path d="" fill="#020202" transform="translate(0,0)"/>
<path d="" fill="#030303" transform="translate(0,0)"/>
<path d="" fill="#0A0A0A" transform="translate(0,0)"/>
<path d="" fill="#090909" transform="translate(0,0)"/>
<path d="" fill="#030303" transform="translate(0,0)"/>
<path d="" fill="#030303" transform="translate(0,0)"/>
<path d="" fill="#121212" transform="translate(0,0)"/>
<path d="" fill="#010101" transform="translate(0,0)"/>
<path d="" fill="#121211" transform="translate(0,0)"/>
<path d="" fill="#252423" transform="translate(0,0)"/>
<path d="" fill="#010101" transform="translate(0,0)"/>
<path d="" fill="#010101" transform="translate(0,0)"/>
<path d="" fill="#090909" transform="translate(0,0)"/>
<path d="" fill="#050505" transform="translate(0,0)"/>
<path d="" fill="#030303" transform="translate(0,0)"/>
<path d="" fill="#020202" transform="translate(0,0)"/>
<path d="" fill="#020202" transform="translate(0,0)"/>
<path d="" fill="#030303" transform="translate(0,0)"/>
<path d="" fill="#111111" transform="translate(0,0)"/>
<path d="" fill="#020202" transform="translate(0,0)"/>
<path d="" fill="#302F2D" transform="translate(0,0)"/>
<path d="" fill="#0F0E0F" transform="translate(0,0)"/>
<path d="" fill="#020202" transform="translate(0,0)"/>
<path d="" fill="#030303" transform="translate(0,0)"/>
<path d="" fill="#070707" transform="translate(0,0)"/>
<path d="" fill="#020202" transform="translate(0,0)"/>
<path d="" fill="#020202" transform="translate(0,0)"/>
<path d="" fill="#020202" transform="translate(0,0)"/>
<path d="" fill="#3A3734" transform="translate(0,0)"/>
<path d="" fill="#181718" transform="translate(0,0)"/>
<path d="" fill="#030303" transform="translate(0,0)"/>
<path d="" fill="#040404" transform="translate(0,0)"/>
<path d="" fill="#050505" transform="translate(0,0)"/>
<path d="" fill="#080808" transform="translate(0,0)"/>
<path d="" fill="#030303" transform="translate(0,0)"/>
<path d="" fill="#020202" transform="translate(0,0)"/>
<path d="" fill="#0E0E0E" transform="translate(0,0)"/>
<path d="" fill="#090909" transform="translate(0,0)"/>
<path d="" fill="#080808" transform="translate(0,0)"/>
<path d="" fill="#020202" transform="translate(0,0)"/>
<path d="" fill="#020202" transform="translate(0,0)"/>
<path d="" fill="#0F0F0F" transform="translate(0,0)"/>
<path d="" fill="#0B0B0B" transform="translate(0,0)"/>
<path d="" fill="#080708" transform="translate(0,0)"/>
<path d="" fill="#070707" transform="translate(0,0)"/>
<path d="" fill="#0B0A0A" transform="translate(0,0)"/>
<path d="" fill="#010101" transform="translate(0,0)"/>
<path d="" fill="#0B0A0B" transform="translate(0,0)"/>
<path d="" fill="#020202" transform="translate(0,0)"/>
<path d="" fill="#413B39" transform="translate(0,0)"/>
<path d="" fill="#030303" transform="translate(0,0)"/>
<path d="" fill="#080808" transform="translate(0,0)"/>
<path d="" fill="#060606" transform="translate(0,0)"/>
<path d="" fill="#131212" transform="translate(0,0)"/>
<path d="" fill="#030303" transform="translate(0,0)"/>
<path d="" fill="#0B0B0B" transform="translate(0,0)"/>
<path d="" fill="#040404" transform="translate(0,0)"/>
<path d="" fill="#020202" transform="translate(0,0)"/>
<path d="" fill="#433C3A" transform="translate(0,0)"/>
<path d="" fill="#080808" transform="translate(0,0)"/>
<path d="" fill="#010101" transform="translate(0,0)"/>
<path d="" fill="#050505" transform="translate(0,0)"/>
<path d="" fill="#060606" transform="translate(0,0)"/>
<path d="" fill="#070707" transform="translate(0,0)"/>
<path d="" fill="#070707" transform="translate(0,0)"/>
<path d="" fill="#0A0909" transform="translate(0,0)"/>
<path d="" fill="#050505" transform="translate(0,0)"/>
<path d="" fill="#222021" transform="translate(0,0)"/>
<path d="" fill="#070707" transform="translate(0,0)"/>
<path d="" fill="#181617" transform="translate(0,0)"/>
<path d="" fill="#080808" transform="translate(0,0)"/>
<path d="" fill="#0E0D0D" transform="translate(0,0)"/>
<path d="" fill="#080808" transform="translate(0,0)"/>
<path d="" fill="#181717" transform="translate(0,0)"/>
<path d="" fill="#030303" transform="translate(0,0)"/>
<path d="" fill="#070707" transform="translate(0,0)"/>
<path d="" fill="#171616" transform="translate(0,0)"/>
<path d="" fill="#252223" transform="translate(0,0)"/>
<path d="" fill="#070707" transform="translate(0,0)"/>
<path d="" fill="#7B716D" transform="translate(0,0)"/>
<path d="" fill="#524A48" transform="translate(0,0)"/>
<path d="" fill="#242223" transform="translate(0,0)"/>
<path d="" fill="#080808" transform="translate(0,0)"/>
<path d="" fill="#0C0C0C" transform="translate(0,0)"/>
<path d="" fill="#070707" transform="translate(0,0)"/>
<path d="" fill="#040404" transform="translate(0,0)"/>
<path d="" fill="#020202" transform="translate(0,0)"/>
<path d="" fill="#1C1A19" transform="translate(0,0)"/>
<path d="" fill="#564E4C" transform="translate(0,0)"/>
<path d="" fill="#211F1E" transform="translate(0,0)"/>
<path d="" fill="#090909" transform="translate(0,0)"/>
<path d="" fill="#010101" transform="translate(0,0)"/>
<path d="" fill="#040404" transform="translate(0,0)"/>
<path d="" fill="#060606" transform="translate(0,0)"/>
<path d="" fill="#030303" transform="translate(0,0)"/>
<path d="" fill="#060606" transform="translate(0,0)"/>
<path d="" fill="#020202" transform="translate(0,0)"/>
<path d="" fill="#040404" transform="translate(0,0)"/>
<path d="" fill="#100E0D" transform="translate(0,0)"/>
<path d="" fill="#100E0E" transform="translate(0,0)"/>
<path d="" fill="#252223" transform="translate(0,0)"/>
<path d="" fill="#060506" transform="translate(0,0)"/>
<path d="" fill="#020202" transform="translate(0,0)"/>
<path d="" fill="#050505" transform="translate(0,0)"/>
<path d="" fill="#0D0C0C" transform="translate(0,0)"/>
<path d="" fill="#322E2F" transform="translate(0,0)"/>
<path d="" fill="#0A0909" transform="translate(0,0)"/>
<path d="" fill="#040404" transform="translate(0,0)"/>
<path d="" fill="#070707" transform="translate(0,0)"/>
<path d="" fill="#0F0E0D" transform="translate(0,0)"/>
<path d="" fill="#201D1E" transform="translate(0,0)"/>
<path d="" fill="#0A0909" transform="translate(0,0)"/>
<path d="" fill="#090909" transform="translate(0,0)"/>
<path d="" fill="#030303" transform="translate(0,0)"/>
<path d="" fill="#070707" transform="translate(0,0)"/>
<path d="" fill="#242322" transform="translate(0,0)"/>
<path d="" fill="#070707" transform="translate(0,0)"/>
<path d="" fill="#2D292B" transform="translate(0,0)"/>
<path d="" fill="#262224" transform="translate(0,0)"/>
<path d="" fill="#040404" transform="translate(0,0)"/>
<path d="" fill="#0B0B0B" transform="translate(0,0)"/>
<path d="" fill="#020202" transform="translate(0,0)"/>
<path d="" fill="#050505" transform="translate(0,0)"/>
<path d="" fill="#211E1F" transform="translate(0,0)"/>
<path d="" fill="#070606" transform="translate(0,0)"/>
<path d="" fill="#0D0D0D" transform="translate(0,0)"/>
<path d="" fill="#020202" transform="translate(0,0)"/>
<path d="" fill="#060606" transform="translate(0,0)"/>
<path d="" fill="#948A81" transform="translate(0,0)"/>
<path d="" fill="#ABA799" transform="translate(0,0)"/>
<path d="" fill="#0B0B0B" transform="translate(0,0)"/>
<path d="" fill="#060606" transform="translate(0,0)"/>
<path d="" fill="#221F20" transform="translate(0,0)"/>
<path d="" fill="#121111" transform="translate(0,0)"/>
<path d="" fill="#060606" transform="translate(0,0)"/>
<path d="" fill="#0D0D0D" transform="translate(0,0)"/>
<path d="" fill="#070707" transform="translate(0,0)"/>
<path d="" fill="#020202" transform="translate(0,0)"/>
<path d="" fill="#040404" transform="translate(0,0)"/>
<path d="" fill="#030303" transform="translate(0,0)"/>
<path d="" fill="#060506" transform="translate(0,0)"/>
<path d="" fill="#221F1E" transform="translate(0,0)"/>
<path d="" fill="#050505" transform="translate(0,0)"/>
<path d="" fill="#242122" transform="translate(0,0)"/>
<path d="" fill="#060606" transform="translate(0,0)"/>
<path d="" fill="#C1B9AD" transform="translate(0,0)"/>
<path d="" fill="#2F2A2C" transform="translate(0,0)"/>
<path d="" fill="#060606" transform="translate(0,0)"/>
<path d="" fill="#060606" transform="translate(0,0)"/>
<path d="" fill="#221F1E" transform="translate(0,0)"/>
<path d="" fill="#2F2A2C" transform="translate(0,0)"/>
<path d="" fill="#050505" transform="translate(0,0)"/>
<path d="" fill="#181514" transform="translate(0,0)"/>
<path d="" fill="#141211" transform="translate(0,0)"/>
<path d="" fill="#030303" transform="translate(0,0)"/>
<path d="" fill="#332D30" transform="translate(0,0)"/>
<path d="" fill="#080808" transform="translate(0,0)"/>
<path d="" fill="#070707" transform="translate(0,0)"/>
<path d="" fill="#050505" transform="translate(0,0)"/>
<path d="" fill="#080808" transform="translate(0,0)"/>
<path d="" fill="#010101" transform="translate(0,0)"/>
<path d="" fill="#040404" transform="translate(0,0)"/>
<path d="" fill="#968883" transform="translate(0,0)"/>
<path d="" fill="#0E0E0E" transform="translate(0,0)"/>
<path d="" fill="#040404" transform="translate(0,0)"/>
<path d="" fill="#010101" transform="translate(0,0)"/>
<path d="" fill="#060606" transform="translate(0,0)"/>
<path d="" fill="#332D2B" transform="translate(0,0)"/>
<path d="" fill="#1C1B1B" transform="translate(0,0)"/>
<path d="" fill="#020202" transform="translate(0,0)"/>
<path d="" fill="#080808" transform="translate(0,0)"/>
<path d="" fill="#141313" transform="translate(0,0)"/>
<path d="" fill="#080808" transform="translate(0,0)"/>
<path d="" fill="#070707" transform="translate(0,0)"/>
<path d="" fill="#030303" transform="translate(0,0)"/>
<path d="" fill="#151312" transform="translate(0,0)"/>
<path d="" fill="#0F0E0D" transform="translate(0,0)"/>
<path d="" fill="#0B090A" transform="translate(0,0)"/>
<path d="" fill="#111111" transform="translate(0,0)"/>
<path d="" fill="#857974" transform="translate(0,0)"/>
<path d="" fill="#080808" transform="translate(0,0)"/>
<path d="" fill="#080808" transform="translate(0,0)"/>
<path d="" fill="#030303" transform="translate(0,0)"/>
<path d="" fill="#050505" transform="translate(0,0)"/>
<path d="" fill="#2F2A2C" transform="translate(0,0)"/>
<path d="" fill="#020202" transform="translate(0,0)"/>
<path d="" fill="#060606" transform="translate(0,0)"/>
<path d="" fill="#050505" transform="translate(0,0)"/>
<path d="" fill="#393433" transform="translate(0,0)"/>
<path d="" fill="#020202" transform="translate(0,0)"/>
<path d="" fill="#0E0E0E" transform="translate(0,0)"/>
<path d="" fill="#080808" transform="translate(0,0)"/>
<path d="" fill="#060606" transform="translate(0,0)"/>
<path d="" fill="#070707" transform="translate(0,0)"/>
<path d="" fill="#131313" transform="translate(0,0)"/>
<path d="" fill="#171516" transform="translate(0,0)"/>
<path d="" fill="#040404" transform="translate(0,0)"/>
<path d="" fill="#040404" transform="translate(0,0)"/>
<path d="" fill="#050404" transform="translate(0,0)"/>
<path d="" fill="#0A0A0A" transform="translate(0,0)"/>
<path d="" fill="#060606" transform="translate(0,0)"/>
<path d="" fill="#070707" transform="translate(0,0)"/>
<path d="" fill="#020202" transform="translate(0,0)"/>
<path d="" fill="#020202" transform="translate(0,0)"/>
<path d="" fill="#131011" transform="translate(0,0)"/>
<path d="" fill="#302B2D" transform="translate(0,0)"/>
<path d="" fill="#030303" transform="translate(0,0)"/>
<path d="" fill="#0D0D0D" transform="translate(0,0)"/>
<path d="" fill="#ACA599" transform="translate(0,0)"/>
<path d="" fill="#060506" transform="translate(0,0)"/>
<path d="" fill="#0B0A0A" transform="translate(0,0)"/>
<path d="" fill="#332E30" transform="translate(0,0)"/>
<path d="" fill="#070707" transform="translate(0,0)"/>
<path d="" fill="#47413F" transform="translate(0,0)"/>
<path d="" fill="#030303" transform="translate(0,0)"/>
<path d="" fill="#070707" transform="translate(0,0)"/>
<path d="" fill="#0B0A0A" transform="translate(0,0)"/>
<path d="" fill="#050505" transform="translate(0,0)"/>
<path d="" fill="#020202" transform="translate(0,0)"/>
<path d="" fill="#070707" transform="translate(0,0)"/>
<path d="" fill="#0B0B0B" transform="translate(0,0)"/>
<path d="" fill="#332E30" transform="translate(0,0)"/>
<path d="" fill="#030303" transform="translate(0,0)"/>
<path d="" fill="#020202" transform="translate(0,0)"/>
<path d="" fill="#070707" transform="translate(0,0)"/>
<path d="" fill="#111010" transform="translate(0,0)"/>
<path d="" fill="#090909" transform="translate(0,0)"/>
<path d="" fill="#282425" transform="translate(0,0)"/>
<path d="" fill="#332E30" transform="translate(0,0)"/>
<path d="" fill="#0C0B0B" transform="translate(0,0)"/>
<path d="" fill="#070707" transform="translate(0,0)"/>
<path d="" fill="#020202" transform="translate(0,0)"/>
<path d="" fill="#231F21" transform="translate(0,0)"/>
<path d="" fill="#090909" transform="translate(0,0)"/>
<path d="" fill="#050505" transform="translate(0,0)"/>
<path d="" fill="#A79690" transform="translate(0,0)"/>
<path d="" fill="#8D7D79" transform="translate(0,0)"/>
<path d="" fill="#897A76" transform="translate(0,0)"/>
<path d="" fill="#211D1C" transform="translate(0,0)"/>
<path d="" fill="#968581" transform="translate(0,0)"/>
<path d="" fill="#100E0E" transform="translate(0,0)"/>
<path d="" fill="#060606" transform="translate(0,0)"/>
<path d="" fill="#A3908C" transform="translate(0,0)"/>
<path d="" fill="#94837F" transform="translate(0,0)"/>
<path d="" fill="#7F706D" transform="translate(0,0)"/>
<path d="" fill="#342F31" transform="translate(0,0)"/>
<path d="" fill="#0F0E0E" transform="translate(0,0)"/>
<path d="" fill="#383436" transform="translate(0,0)"/>
<path d="" fill="#AF9A96" transform="translate(0,0)"/>
<path d="" fill="#141112" transform="translate(0,0)"/>
<path d="" fill="#3D383A" transform="translate(0,0)"/>
<path d="" fill="#151213" transform="translate(0,0)"/>
<path d="" fill="#332E30" transform="translate(0,0)"/>
<path d="" fill="#272325" transform="translate(0,0)"/>
<path d="" fill="#070707" transform="translate(0,0)"/>
<path d="" fill="#060606" transform="translate(0,0)"/>
<path d="" fill="#050505" transform="translate(0,0)"/>
<path d="" fill="#050505" transform="translate(0,0)"/>
<path d="" fill="#5A5157" transform="translate(0,0)"/>
<path d="" fill="#363032" transform="translate(0,0)"/>
<path d="" fill="#353032" transform="translate(0,0)"/>
<path d="" fill="#070707" transform="translate(0,0)"/>
<path d="" fill="#060606" transform="translate(0,0)"/>
<path d="" fill="#040404" transform="translate(0,0)"/>
<path d="" fill="#8F7E7B" transform="translate(0,0)"/>
<path d="" fill="#322D2F" transform="translate(0,0)"/>
<path d="" fill="#322D2F" transform="translate(0,0)"/>
<path d="" fill="#272325" transform="translate(0,0)"/>
<path d="" fill="#070707" transform="translate(0,0)"/>
<path d="" fill="#050505" transform="translate(0,0)"/>
<path d="" fill="#82736F" transform="translate(0,0)"/>
<path d="" fill="#373134" transform="translate(0,0)"/>
<path d="" fill="#AE9CA7" transform="translate(0,0)"/>
<path d="" fill="#322D2F" transform="translate(0,0)"/>
<path d="" fill="#2B2729" transform="translate(0,0)"/>
<path d="" fill="#010101" transform="translate(0,0)"/>
<path d="" fill="#050505" transform="translate(0,0)"/>
<path d="" fill="#0A0A0A" transform="translate(0,0)"/>
<path d="" fill="#7E6F6C" transform="translate(0,0)"/>
<path d="" fill="#080808" transform="translate(0,0)"/>
<path d="" fill="#776966" transform="translate(0,0)"/>
<path d="" fill="#A2908D" transform="translate(0,0)"/>
<path d="" fill="#010101" transform="translate(0,0)"/>
<path d="" fill="#090909" transform="translate(0,0)"/>
<path d="" fill="#40393C" transform="translate(0,0)"/>
<path d="" fill="#857571" transform="translate(0,0)"/>
<path d="" fill="#060606" transform="translate(0,0)"/>
<path d="" fill="#E0CACA" transform="translate(0,0)"/>
<path d="" fill="#D8C4C3" transform="translate(0,0)"/>
<path d="" fill="#4F474A" transform="translate(0,0)"/>
<path d="" fill="#020202" transform="translate(0,0)"/>
<path d="" fill="#CAB2AD" transform="translate(0,0)"/>
<path d="" fill="#CAB6B0" transform="translate(0,0)"/>
<path d="" fill="#D4C0BE" transform="translate(0,0)"/>
<path d="" fill="#050505" transform="translate(0,0)"/>
<path d="" fill="#BEA8A4" transform="translate(0,0)"/>
<path d="" fill="#0A0A0A" transform="translate(0,0)"/>
<path d="" fill="#60555A" transform="translate(0,0)"/>
<path d="" fill="#050505" transform="translate(0,0)"/>
<path d="" fill="#675B61" transform="translate(0,0)"/>
<path d="" fill="#050505" transform="translate(0,0)"/>
<path d="" fill="#050505" transform="translate(0,0)"/>
<path d="" fill="#B19EA9" transform="translate(0,0)"/>
<path d="" fill="#050505" transform="translate(0,0)"/>
<path d="" fill="#070707" transform="translate(0,0)"/>
<path d="" fill="#050505" transform="translate(0,0)"/>
<path d="" fill="#070707" transform="translate(0,0)"/>
<path d="" fill="#0B0B0B" transform="translate(0,0)"/>
<path d="" fill="#060606" transform="translate(0,0)"/>
<path d="" fill="#090909" transform="translate(0,0)"/>
<path d="" fill="#050505" transform="translate(0,0)"/>
<path d="" fill="#050505" transform="translate(0,0)"/>
<path d="" fill="#030303" transform="translate(0,0)"/>
<path d="" fill="#070707" transform="translate(0,0)"/>
<path d="" fill="#020202" transform="translate(0,0)"/>
<path d="" fill="#060606" transform="translate(0,0)"/>
<path d="" fill="#060606" transform="translate(0,0)"/>
<path d="" fill="#050505" transform="translate(0,0)"/>
<path d="" fill="#050505" transform="translate(0,0)"/>
<path d="" fill="#CAB1AC" transform="translate(0,0)"/>
<path d="" fill="#070707" transform="translate(0,0)"/>
<path d="" fill="#050505" transform="translate(0,0)"/>
<path d="" fill="#050505" transform="translate(0,0)"/>
<path d="" fill="#020202" transform="translate(0,0)"/>
<path d="" fill="#060606" transform="translate(0,0)"/>
<path d="" fill="#020202" transform="translate(0,0)"/>
<path d="" fill="#040404" transform="translate(0,0)"/>
<path d="" fill="#D2B6B2" transform="translate(0,0)"/>
<path d="" fill="#C1A7A3" transform="translate(0,0)"/>
<path d="" fill="#030303" transform="translate(0,0)"/>
<path d="" fill="#050505" transform="translate(0,0)"/>
<path d="" fill="#050505" transform="translate(0,0)"/>
<path d="" fill="#E4BEBA" transform="translate(0,0)"/>
<path d="" fill="#050505" transform="translate(0,0)"/>
<path d="" fill="#CEB2AE" transform="translate(0,0)"/>
<path d="" fill="#E5C5C2" transform="translate(0,0)"/>
<path d="" fill="#060606" transform="translate(0,0)"/>
<path d="" fill="#020202" transform="translate(0,0)"/>
<path d="" fill="#040404" transform="translate(0,0)"/>
<path d="" fill="#010101" transform="translate(0,0)"/>
<path d="" fill="#E6C6C5" transform="translate(0,0)"/>
<path d="" fill="#020202" transform="translate(0,0)"/>
<path d="" fill="#D5B7B3" transform="translate(0,0)"/>
<path d="" fill="#080808" transform="translate(0,0)"/>
<path d="" fill="#070707" transform="translate(0,0)"/>
<path d="" fill="#050505" transform="translate(0,0)"/>
<path d="" fill="#050505" transform="translate(0,0)"/>
<path d="" fill="#050505" transform="translate(0,0)"/>
<path d="" fill="#050505" transform="translate(0,0)"/>
<path d="" fill="#050505" transform="translate(0,0)"/>
<path d="" fill="#050505" transform="translate(0,0)"/>
<path d="" fill="#E5B4B1" transform="translate(0,0)"/>
<path d="" fill="#ECC9C5" transform="translate(0,0)"/>
<path d="" fill="#DBBAB6" transform="translate(0,0)"/>
<path d="" fill="#DBBBB7" transform="translate(0,0)"/>
<path d="" fill="#DBB9B5" transform="translate(0,0)"/>
</svg>
